<svg xmlns="http://www.w3.org/2000/svg" viewBox="0 0 1000 1000"><title>Mesa de trabajo 1</title><g id="orejas"><path d="M628.18,463.34c-7.13,40.47,16.87,74.18,53.63,81.44s72.28-14.68,79.38-55.16-16.87-79.18-53.61-86.44S635.29,422.85,628.18,463.34Z" style="fill:#f5bf83;fill-rule:evenodd"/><path d="M371.83,463.34c7.12,40.47-16.88,74.18-53.63,81.44s-72.28-14.68-79.39-55.16,16.88-79.18,53.62-86.44S364.71,422.85,371.83,463.34Z" style="fill:#f5bf83;fill-rule:evenodd"/></g><g id="caras_y_silueta" data-name="caras y silueta"><g id="cara_cuadrada" data-name="cara cuadrada"><path id="cuadrada" d="M692.67,224.45C666.21,149.06,601.52,156,601.52,156h-203s-64.69-7-91.15,68.41c0,0-42.63,125.65-16.17,272.24,0,0,8.82,115.88,39.69,139.61,0,0,95.56,72.6,127.9,79.58h82.49c32.34-7,127.9-79.58,127.9-79.58,30.87-23.73,39.69-139.61,39.69-139.61C735.3,350.1,692.67,224.45,692.67,224.45Z" style="fill:#f5bf83"/><path d="M573.81,800.55c-20.52-20.76,0-125.55,0-125.55l-74.81.5-74.81-.5s20.52,104.79,0,125.55c0,0-240.19,30.37-240.19,199.45H814C814,830.92,573.81,800.55,573.81,800.55Z" style="fill:#f5bf83"/></g></g></svg>