<svg xmlns="http://www.w3.org/2000/svg" viewBox="0 0 1000 1000"><title>1Mesa de trabajo 1</title><g id="partes_de_cara_masculino" data-name="partes de cara masculino"><g id="bocas"><g id="_2" data-name="2"><path d="M433.21,613.9a41.65,41.65,0,0,0,4.27,5,54.31,54.31,0,0,0,5.54,5,42.8,42.8,0,0,0,3.68,2.72c1.3.94,2.69,1.89,4.22,2.78a65.54,65.54,0,0,0,10.1,5.13,86,86,0,0,0,12,3.95,53,53,0,0,0,6.5,1.42,64.32,64.32,0,0,0,6.75,1,127,127,0,0,0,13.84.87,132.76,132.76,0,0,0,14.08-.78,60.66,60.66,0,0,0,6.73-.95,55.73,55.73,0,0,0,6.52-1.35,76,76,0,0,0,22.08-9c1.5-.92,2.91-1.84,4.19-2.81a38.48,38.48,0,0,0,3.63-2.77,48.64,48.64,0,0,0,5.41-5.13,37.47,37.47,0,0,0,4.08-5.13,29,29,0,0,1-3.3,5.75,49.9,49.9,0,0,1-4.89,5.9,47.44,47.44,0,0,1-7.51,6.58A72.5,72.5,0,0,1,528.58,643a60,60,0,0,1-6.8,1.68,48.13,48.13,0,0,1-7.11,1.18,135,135,0,0,1-14.42,1,129.69,129.69,0,0,1-14.65-1.09,49.8,49.8,0,0,1-7.06-1.25,55.94,55.94,0,0,1-6.78-1.75,67.71,67.71,0,0,1-12.31-4.89,68.8,68.8,0,0,1-10.14-6.12,50.19,50.19,0,0,1-7.57-6.48,56.34,56.34,0,0,1-5-5.78A31.4,31.4,0,0,1,433.21,613.9Z" style="fill:#e2a97a"/></g></g></g></svg>