<svg xmlns="http://www.w3.org/2000/svg" viewBox="0 0 1000 1000"><title>1Mesa de trabajo 1</title><g id="PARTES_CARA_MUJERES" data-name="PARTES CARA MUJERES"><g id="cejas"><g id="_1" data-name="1"><path d="M419.06,411l-3.63-1.74c-2.3-1.06-5.59-2.46-9.51-3.93a111.84,111.84,0,0,0-13.49-4c-2.48-.53-5-1-7.64-1.34a72.79,72.79,0,0,0-7.92-.62l-1.81-.1-2.15.06c-1.44,0-2.9,0-4.06.18a67.89,67.89,0,0,0-7.48.94,69.59,69.59,0,0,0-13.23,3.82A62.57,62.57,0,0,0,335.68,411a19.06,19.06,0,0,1,2.06-3.56,30,30,0,0,1,3-3.69,33.15,33.15,0,0,1,4.6-4.19,44.12,44.12,0,0,1,13.91-7.32,47,47,0,0,1,8.85-2,35.49,35.49,0,0,1,4.45-.41l2.15-.1,2.49.06a57.28,57.28,0,0,1,17.66,3.41,60.3,60.3,0,0,1,7.5,3.36,57.58,57.58,0,0,1,6.18,3.9,47.05,47.05,0,0,1,8,7.25A24.67,24.67,0,0,1,419.06,411Z" style="fill:#120804"/><path d="M566.79,411a24.65,24.65,0,0,1,2.49-3.26,47.07,47.07,0,0,1,8-7.25,57.52,57.52,0,0,1,6.18-3.9,60.27,60.27,0,0,1,7.5-3.36,57.26,57.26,0,0,1,17.66-3.41l2.49-.06,2.15.1a35.36,35.36,0,0,1,4.45.41,47,47,0,0,1,8.85,2,44.13,44.13,0,0,1,13.91,7.32,33.15,33.15,0,0,1,4.6,4.19,30,30,0,0,1,3,3.69,19,19,0,0,1,2.06,3.56,62.55,62.55,0,0,0-12.46-6.68,69.59,69.59,0,0,0-13.23-3.82,67.91,67.91,0,0,0-7.48-.94c-1.17-.16-2.63-.13-4.06-.18l-2.15-.06-1.81.1a72.5,72.5,0,0,0-7.92.62c-2.61.34-5.16.81-7.64,1.34a111.71,111.71,0,0,0-13.49,4c-3.92,1.47-7.21,2.87-9.51,3.93Z" style="fill:#120804"/></g></g></g></svg>