<svg xmlns="http://www.w3.org/2000/svg" viewBox="0 0 1000 1000"><title>1Mesa de trabajo 1</title><g id="PARTES_CARA_MUJERES" data-name="PARTES CARA MUJERES"><g id="cejas"><g id="_4" data-name="4"><path d="M646.81,413.49c-9.58-9.31-21.48-15-34.12-19.08a119,119,0,0,0-20.08-4.62c-6-.85-12.88-2.58-18.08,1.19a2.86,2.86,0,0,0,0,4.86c4.93,3.39,11.14,2.29,16.88,2.81a110,110,0,0,1,18.3,3.31c12.21,3.25,23.55,8.95,34.88,14.4,1.79.86,3.79-1.34,2.22-2.87Z" style="fill:#452210"/><path d="M355.4,416.36c11.33-5.46,22.67-11.15,34.88-14.4a110.74,110.74,0,0,1,18.3-3.31c5.74-.53,11.95.59,16.88-2.81a2.86,2.86,0,0,0,0-4.86c-5.2-3.77-12.1-2-18.08-1.19a119,119,0,0,0-20.08,4.62c-12.64,4.1-24.55,9.78-34.12,19.08-1.56,1.51.41,3.74,2.22,2.87Z" style="fill:#452210"/></g></g></g></svg>