<svg xmlns="http://www.w3.org/2000/svg" viewBox="0 0 1000 1000"><title>1Mesa de trabajo 1</title><g id="PARTES_CARA_MUJERES" data-name="PARTES CARA MUJERES"><g id="cejas"><g id="_5" data-name="5"><path d="M583.81,417.87a31.34,31.34,0,0,1,3.17-4.14,59.91,59.91,0,0,1,10.25-9.21,73.28,73.28,0,0,1,7.87-5,76.87,76.87,0,0,1,9.55-4.28,73,73,0,0,1,22.49-4.33l3.18-.07L643,391a45.12,45.12,0,0,1,5.67.52A60,60,0,0,1,660,394a56.25,56.25,0,0,1,17.72,9.31,42.2,42.2,0,0,1,5.85,5.32,38.25,38.25,0,0,1,3.82,4.69,24.22,24.22,0,0,1,2.62,4.53,79.75,79.75,0,0,0-15.87-8.5,88.81,88.81,0,0,0-16.85-4.86,86.45,86.45,0,0,0-9.53-1.19c-1.49-.2-3.35-.16-5.18-.23l-2.74-.08-2.31.12a92.68,92.68,0,0,0-10.08.79c-3.32.44-6.58,1-9.73,1.7a142.59,142.59,0,0,0-17.18,5c-5,1.87-9.18,3.65-12.11,5Z" style="fill:#5e2a0e"/><path d="M416.19,417.87a31.34,31.34,0,0,0-3.17-4.14,59.91,59.91,0,0,0-10.25-9.21,73.28,73.28,0,0,0-7.87-5,76.87,76.87,0,0,0-9.55-4.28,73,73,0,0,0-22.49-4.33l-3.18-.07L357,391a45.12,45.12,0,0,0-5.67.52A60,60,0,0,0,340,394a56.25,56.25,0,0,0-17.72,9.31,42.2,42.2,0,0,0-5.85,5.32,38.25,38.25,0,0,0-3.82,4.69,24.22,24.22,0,0,0-2.62,4.53,79.75,79.75,0,0,1,15.87-8.5,88.81,88.81,0,0,1,16.85-4.86,86.45,86.45,0,0,1,9.53-1.19c1.49-.2,3.35-.16,5.18-.23l2.74-.08,2.31.12a92.68,92.68,0,0,1,10.08.79c3.32.44,6.58,1,9.73,1.7a142.59,142.59,0,0,1,17.18,5c5,1.87,9.18,3.65,12.11,5Z" style="fill:#5e2a0e"/></g></g></g></svg>