<svg id="u._error2" data-name="u. error2" xmlns="http://www.w3.org/2000/svg" width="70" height="70" viewBox="0 0 70 70">
  <path id="Trazado_378" data-name="Trazado 378" d="M0,0H70V70H0Z" fill="none"/>
  <path id="fi-rr-user-remove" d="M18,24A12,12,0,1,0,6,12,12,12,0,0,0,18,24ZM18,4a8,8,0,1,1-8,8A8,8,0,0,1,18,4ZM36,46a2,2,0,1,1-4,0A14,14,0,1,0,4,46a2,2,0,0,1-4,0,18,18,0,0,1,36,0Z" transform="translate(11 11)" fill="#285f94"/>
  <g id="u._bloq" data-name="u. bloq">
    <path id="Trazado_378-2" data-name="Trazado 378" d="M0,0H70V70H0Z" fill="none"/>
    <g id="Grupo_2326" data-name="Grupo 2326" transform="translate(-721 -499.525)">
      <g id="Grupo_2260" data-name="Grupo 2260" transform="translate(764.968 518.648)">
        <path id="fi-rr-shield" d="M21.7,2.516,14.255.06a1.2,1.2,0,0,0-.751,0L6.061,2.516A5.876,5.876,0,0,0,2,8.093v6.016C2,23,12.929,27.912,13.4,28.117a1.2,1.2,0,0,0,.965,0c.468-.2,11.4-5.116,11.4-14.008V8.093A5.876,5.876,0,0,0,21.7,2.516Zm1.686,11.593c0,6.414-7.507,10.62-9.5,11.627-2-1-9.5-5.2-9.5-11.627V8.093A3.531,3.531,0,0,1,6.813,4.746L13.88,2.415l7.066,2.331a3.531,3.531,0,0,1,2.438,3.346Z" transform="translate(-2 0)" fill="#285f94"/>
        <path id="fi-rr-envelope-ban" d="M20.736,13a6.68,6.68,0,0,0,6.6-5.236A6.456,6.456,0,0,0,23.306.493a6.873,6.873,0,0,0-8.176,2.4,6.33,6.33,0,0,0,.843,8.207A6.848,6.848,0,0,0,20.736,13ZM23.6,9.261a4.151,4.151,0,0,1-4.588.749l5.367-5.179A3.8,3.8,0,0,1,23.6,9.258Zm-5.717-5.52a4.151,4.151,0,0,1,4.588-.751L17.1,8.169a3.8,3.8,0,0,1,.779-4.428Z" transform="translate(-8.853 6.326)" fill="#285f94"/>
      </g>
    </g>
  </g>
</svg>
