<svg xmlns="http://www.w3.org/2000/svg" viewBox="0 0 65.39 70.82"><defs><style>.cls-1{fill:#575756;}</style></defs><title>Recurso 4</title><g id="Capa_2" data-name="Capa 2"><g id="Capa_1-2" data-name="Capa 1"><path class="cls-1" d="M38.55,1C48.73,2.86,56.65,8.82,62.33,18.67a5.43,5.43,0,0,1,.39.82c5.79,15.73,2.19,29.49-11,40.65-9.63,5.62-19.35,7.12-28.78,4.08-6.23,2.22-12.47,4.4-18.71,6.6.4-5.6.52-11.22,1-16.81.26-2.81-.73-4.89-2.62-7.45a2.44,2.44,0,0,1-.35-.67C-2,32.94-.2,21.67,7.52,12.25A31.55,31.55,0,0,1,26.82,1c2-.36,3.94-.52,5.88-1C34.63.44,36.6.6,38.55,1ZM7.43,66.55l.86-.28c4.85-1.71,9.7-3.4,14.54-5.14q12.9,4.53,26.62-3.07l.08-.05c13.24-10.77,16.33-24.58,9.14-40.35a1.45,1.45,0,0,0-.17-.28C48.08,3.88,35,.43,20.11,5.73,9.63,11.72,3.73,20.21,3,31.11A29,29,0,0,0,7.73,49.27a3.1,3.1,0,0,1,.56,2c-.13,1.63-.11,3.27-.36,4.88a28.07,28.07,0,0,0-.24,3.95C7.67,63,7.57,64.36,7.43,66.55Z"/><path class="cls-1" d="M27.52,37.86h.1c0,1,0,1.9,0,2.86A2.76,2.76,0,0,0,28.81,43a4.28,4.28,0,0,0,2.94.85A3.52,3.52,0,0,0,35.38,40c0-.93,0-1.86,0-2.79a1.19,1.19,0,0,1,.5-1c1.49-1.32,3-2.59,4.42-4A11.18,11.18,0,0,0,43.45,22c-.71-3.89-2.81-6.59-6.68-7.68a14.6,14.6,0,0,0-9,.31,8.22,8.22,0,0,0-5.12,4.84,13.87,13.87,0,0,0-.51,6.38A5,5,0,0,0,27,27.7a3.05,3.05,0,0,0,2.77-2.5c.28-1.1,0-2.35.89-3.17a5.62,5.62,0,0,1,3.63-.32,1.71,1.71,0,0,1,1.42,1.39,5,5,0,0,1-.41,3.63,9.67,9.67,0,0,1-2.72,2.91c-1.26,1-2.53,1.91-3.77,2.91a3.36,3.36,0,0,0-1.3,2.93C27.55,36.27,27.52,37.06,27.52,37.86Z"/><path class="cls-1" d="M27.51,50.69a4,4,0,1,0,4.06-4A4,4,0,0,0,27.51,50.69Z"/><path class="cls-1" d="M27.52,37.86c0-.79,0-1.59,0-2.38a3.36,3.36,0,0,1,1.3-2.93c1.24-1,2.51-1.94,3.77-2.91a9.67,9.67,0,0,0,2.72-2.91,5,5,0,0,0,.41-3.63,1.71,1.71,0,0,0-1.42-1.39,5.62,5.62,0,0,0-3.63.32c-.87.82-.61,2.07-.89,3.17A3.05,3.05,0,0,1,27,27.7a5,5,0,0,1-4.84-1.83,13.87,13.87,0,0,1,.51-6.38,8.22,8.22,0,0,1,5.12-4.84,14.6,14.6,0,0,1,9-.31c3.88,1.09,6,3.79,6.68,7.68a11.18,11.18,0,0,1-3.14,10.17c-1.37,1.44-2.92,2.71-4.42,4a1.19,1.19,0,0,0-.5,1c0,.93,0,1.86,0,2.79a3.52,3.52,0,0,1-3.63,3.8A4.28,4.28,0,0,1,28.81,43a2.76,2.76,0,0,1-1.19-2.26c0-1,0-1.9,0-2.86Z"/><path class="cls-1" d="M27.51,50.69a4,4,0,0,1,8,0,4,4,0,1,1-8,0Zm2.19,0a1.81,1.81,0,1,0,3.62,0,1.81,1.81,0,0,0-3.62,0Z"/></g></g></svg>