<svg xmlns="http://www.w3.org/2000/svg" viewBox="0 0 1000 1000"><title>FRENTE 2Mesa de trabajo 1</title><g id="cabello_mujer_frente" data-name="cabello mujer frente"><g id="_0" data-name="0"><path d="M597.75,164.88c-1.81,8.11-.2,51.58,52,118.19s56.21,72.43,56.21,72.43-.15,105.6.45,100.38,23.61-106,23.61-106,13.41-55.83.12-108S700,170.13,677,161.34,597.75,164.88,597.75,164.88Z" style="fill:#7c3927;fill-rule:evenodd"/><path d="M300.91,300.78c-9.06,9.85-31.1,63.27-31.1,63.27l19.5,91.29Z" style="fill:#7c3927;fill-rule:evenodd"/><path d="M705.94,355.5c2.37-38.06,16.64-129.88,6.66-153.6-28.8-68.41-81.54-96.11-170.08-104.59A282.78,282.78,0,0,0,492.66,97C543.46,177.39,592.45,289.06,705.94,355.5Z" style="fill:#7c3927;fill-rule:evenodd"/><path d="M614.46,180.68c-18,107.34-254.23,72.74-332,201.86C266,410,197,98.54,498.65,96.57Z" style="fill:#7c3927;fill-rule:evenodd"/></g></g></svg>