<svg xmlns="http://www.w3.org/2000/svg" viewBox="0 0 1000 1000"><title>1Mesa de trabajo 1</title><g id="cabello_mujer_frente" data-name="cabello mujer frente"><g id="_2" data-name="2"><path d="M599.64,173.86c-1.85,7.31-.2,46.46,53,106.46S710,345.55,710,345.55s2.47,101.24,9.25,89.24,16.46-99.17,16.46-99.17,12.52-45.39-1-92.35S704,178.59,680.48,170.67,599.64,173.86,599.64,173.86Z" style="fill:#402412;fill-rule:evenodd"/><path d="M303,300.67c-9.25,8.87-39.31,9.82-39.31,9.82,1.32,8.21,14.25,131.77,26.39,123Z" style="fill:#402412;fill-rule:evenodd"/><path d="M710,345.55c2.42-34.29,23.21-112.58,13-133.94C693.66,150,639.85,125,549.52,117.4a326.57,326.57,0,0,0-50.87-.26C550.48,189.53,594.23,285.71,710,345.55Z" style="fill:#402412;fill-rule:evenodd"/><path d="M622.92,192.49C604.6,289.18,363.54,258,284.22,374.31c-88.37-113.08,47-344.71,282.5-255.19Z" style="fill:#402412;fill-rule:evenodd"/></g></g></svg>