<svg id="Grupo_14140" data-name="Grupo 14140" xmlns="http://www.w3.org/2000/svg" xmlns:xlink="http://www.w3.org/1999/xlink" width="290.992" height="77.528" viewBox="0 0 290.992 77.528">
  <defs>
    <clipPath id="clip-path">
      <rect id="Rectángulo_20960" data-name="Rectángulo 20960" width="290.992" height="77.528" fill="none"/>
    </clipPath>
  </defs>
  <g id="Grupo_14139" data-name="Grupo 14139" clip-path="url(#clip-path)">
    <path id="Trazado_14021" data-name="Trazado 14021" d="M32.758,28.216a3.247,3.247,0,0,1,2.305-5.55,2.988,2.988,0,0,1,2.226.943,3.355,3.355,0,0,1,0,4.607,2.987,2.987,0,0,1-2.226.942,3.132,3.132,0,0,1-2.305-.942m4.61,34.3H32.6v-28.7h4.766Z" transform="translate(19.757 14.076)" fill="#00008b"/>
    <path id="Trazado_14022" data-name="Trazado 14022" d="M66.151,45.856H43.212a9.02,9.02,0,0,0,9.321,9.006,8.808,8.808,0,0,0,5.16-1.439,7.639,7.639,0,0,0,2.906-3.85h5.132a12.341,12.341,0,0,1-4.608,6.73,13.911,13.911,0,0,1-8.59,2.592,14.5,14.5,0,0,1-7.3-1.833,12.969,12.969,0,0,1-5.054-5.211,16.149,16.149,0,0,1-1.833-7.828,16.388,16.388,0,0,1,1.781-7.8,12.5,12.5,0,0,1,5-5.16,14.891,14.891,0,0,1,7.41-1.806,14.394,14.394,0,0,1,7.228,1.781,12.33,12.33,0,0,1,4.843,4.9,14.448,14.448,0,0,1,1.7,7.043,28.327,28.327,0,0,1-.156,2.88m-5.972-8.562a7.825,7.825,0,0,0-3.273-2.986,10.21,10.21,0,0,0-4.583-1.021,8.832,8.832,0,0,0-6.153,2.305,9.384,9.384,0,0,0-2.906,6.39H61.383a8.8,8.8,0,0,0-1.2-4.688" transform="translate(23.809 18.168)" fill="#00008b"/>
    <path id="Trazado_14023" data-name="Trazado 14023" d="M59.343,36.247a12.816,12.816,0,0,1,4.949-5.158,14.217,14.217,0,0,1,7.252-1.832,14.154,14.154,0,0,1,8.719,2.566,12.111,12.111,0,0,1,4.531,7.121H79.662a7.38,7.38,0,0,0-2.855-4.138,8.814,8.814,0,0,0-5.263-1.517,8.444,8.444,0,0,0-6.6,2.8q-2.514,2.8-2.514,7.935,0,5.184,2.514,8.011a8.406,8.406,0,0,0,6.6,2.827A8.906,8.906,0,0,0,76.782,53.4a7.43,7.43,0,0,0,2.88-4.189h5.132a12.624,12.624,0,0,1-4.608,7.043A13.8,13.8,0,0,1,71.545,58.9a14.217,14.217,0,0,1-7.252-1.833,12.782,12.782,0,0,1-4.949-5.184,16.512,16.512,0,0,1-1.781-7.855,16.244,16.244,0,0,1,1.781-7.777" transform="translate(35.745 18.169)" fill="#00008b"/>
    <path id="Trazado_14024" data-name="Trazado 14024" d="M104.174,45.856H81.235a9.02,9.02,0,0,0,9.321,9.006,8.808,8.808,0,0,0,5.16-1.439,7.639,7.639,0,0,0,2.906-3.85h5.132a12.341,12.341,0,0,1-4.608,6.73,13.911,13.911,0,0,1-8.59,2.592,14.5,14.5,0,0,1-7.3-1.833A12.969,12.969,0,0,1,78.2,51.851a16.149,16.149,0,0,1-1.833-7.828,16.389,16.389,0,0,1,1.781-7.8,12.5,12.5,0,0,1,5-5.16,14.892,14.892,0,0,1,7.41-1.806,14.394,14.394,0,0,1,7.228,1.781,12.33,12.33,0,0,1,4.843,4.9,14.448,14.448,0,0,1,1.7,7.043,28.325,28.325,0,0,1-.156,2.88M98.2,37.294a7.824,7.824,0,0,0-3.273-2.986,10.21,10.21,0,0,0-4.583-1.021,8.832,8.832,0,0,0-6.153,2.305,9.384,9.384,0,0,0-2.906,6.39H99.406a8.8,8.8,0,0,0-1.2-4.688" transform="translate(47.421 18.168)" fill="#00008b"/>
    <path id="Trazado_14025" data-name="Trazado 14025" d="M101.529,57.769a9.987,9.987,0,0,1-4.138-3.14,8.367,8.367,0,0,1-1.674-4.636h4.921a4.826,4.826,0,0,0,2.017,3.508,7.664,7.664,0,0,0,4.74,1.362,6.91,6.91,0,0,0,4.3-1.2,3.683,3.683,0,0,0,1.569-3.038,2.994,2.994,0,0,0-1.676-2.8,23.471,23.471,0,0,0-5.184-1.806,38,38,0,0,1-5.21-1.7,9.254,9.254,0,0,1-3.458-2.566,6.7,6.7,0,0,1-1.438-4.477A6.779,6.779,0,0,1,97.6,33.236a8.878,8.878,0,0,1,3.717-2.906,13.4,13.4,0,0,1,5.5-1.073,11.738,11.738,0,0,1,7.7,2.409,8.686,8.686,0,0,1,3.141,6.6h-4.766a4.934,4.934,0,0,0-1.806-3.615,6.749,6.749,0,0,0-4.425-1.362,6.829,6.829,0,0,0-4.085,1.1,3.4,3.4,0,0,0-1.519,2.88,3.15,3.15,0,0,0,.916,2.329,6.691,6.691,0,0,0,2.305,1.467,39.386,39.386,0,0,0,3.848,1.23,41.52,41.52,0,0,1,5.028,1.65,8.817,8.817,0,0,1,3.325,2.435,6.505,6.505,0,0,1,1.439,4.242,7.258,7.258,0,0,1-1.308,4.24,8.728,8.728,0,0,1-3.693,2.96,13.209,13.209,0,0,1-5.472,1.073,14.84,14.84,0,0,1-5.917-1.127" transform="translate(59.438 18.168)" fill="#00008b"/>
    <path id="Trazado_14026" data-name="Trazado 14026" d="M146.623,42.246a10.771,10.771,0,0,1-4.5,4.268,15.846,15.846,0,0,1-7.539,1.624h-5.552V61.333h-8.956V24.572h14.508a16.515,16.515,0,0,1,7.434,1.517,10.444,10.444,0,0,1,4.557,4.19,12.189,12.189,0,0,1,1.517,6.126,11.835,11.835,0,0,1-1.465,5.84m-8.9-2.435a4.485,4.485,0,0,0,1.256-3.406,4.485,4.485,0,0,0-1.256-3.4,5.344,5.344,0,0,0-3.822-1.2h-4.869v9.217H133.9a5.344,5.344,0,0,0,3.822-1.2" transform="translate(74.563 15.259)" fill="#00008b"/>
    <path id="Trazado_14027" data-name="Trazado 14027" d="M171.264,24.572V61.334H162.31V46.2H148.381V61.334h-8.956V24.572h8.956v14.4H162.31v-14.4Z" transform="translate(86.58 15.259)" fill="#0ae"/>
    <path id="Trazado_14028" data-name="Trazado 14028" d="M188.782,42.246a10.761,10.761,0,0,1-4.5,4.268,15.841,15.841,0,0,1-7.539,1.624h-5.552V61.333h-8.956V24.572H176.74a16.51,16.51,0,0,1,7.434,1.517,10.435,10.435,0,0,1,4.557,4.19,12.173,12.173,0,0,1,1.519,6.126,11.836,11.836,0,0,1-1.467,5.84m-8.9-2.435a4.491,4.491,0,0,0,1.256-3.406,4.491,4.491,0,0,0-1.256-3.4,5.35,5.35,0,0,0-3.822-1.2h-4.871v9.217h4.871a5.35,5.35,0,0,0,3.822-1.2" transform="translate(100.743 15.259)" fill="#00008b"/>
    <path id="Trazado_14029" data-name="Trazado 14029" d="M39.53,24.811A24.813,24.813,0,0,1,14.99,49.621V0A24.813,24.813,0,0,1,39.53,24.811" transform="translate(9.309 0)" fill="#0ae"/>
    <path id="Trazado_14030" data-name="Trazado 14030" d="M0,0V68.559A18.931,18.931,0,0,1,18.93,49.628H24.3V0Z" transform="translate(0 0)" fill="#00008b"/>
    <path id="Trazado_14031" data-name="Trazado 14031" d="M18.93,30.616A18.93,18.93,0,0,0,0,49.546v8.969H24.3v-27.9Z" transform="translate(0 19.012)" fill="#0ae"/>
  </g>
</svg>
