<svg xmlns="http://www.w3.org/2000/svg" xmlns:xlink="http://www.w3.org/1999/xlink" width="463.853" height="598.024" viewBox="0 0 463.853 598.024">
  <defs>
    <linearGradient id="linear-gradient" x1="-20.069" y1="0.987" x2="-22.638" y2="-0.825" gradientUnits="objectBoundingBox">
      <stop offset="0.035" stop-color="#4a4a54"/>
      <stop offset="0.909" stop-color="#d4d1d8"/>
    </linearGradient>
    <linearGradient id="linear-gradient-2" x1="-24.021" y1="0.719" x2="-20.581" y2="0.185" xlink:href="#linear-gradient"/>
    <linearGradient id="linear-gradient-3" x1="-23.079" y1="0.82" x2="-25.381" y2="-0.811" xlink:href="#linear-gradient"/>
    <linearGradient id="linear-gradient-4" x1="-26.075" y1="0.78" x2="-23.628" y2="0.208" xlink:href="#linear-gradient"/>
    <linearGradient id="linear-gradient-5" x1="-9.07" y1="0.48" x2="-0.072" y2="0.641" gradientUnits="objectBoundingBox">
      <stop offset="0.035" stop-color="#9d9eb3"/>
      <stop offset="0.581" stop-color="#d4d1d8"/>
      <stop offset="1" stop-color="#eeebf2"/>
    </linearGradient>
    <linearGradient id="linear-gradient-6" x1="-9.418" y1="0.541" x2="-7.756" y2="0.457" xlink:href="#linear-gradient-5"/>
    <linearGradient id="linear-gradient-7" x1="-14.14" y1="-1.204" x2="-14.697" y2="0.63" xlink:href="#linear-gradient-5"/>
    <linearGradient id="linear-gradient-8" x1="-5.013" y1="0.5" x2="-0.418" y2="0.622" xlink:href="#linear-gradient-5"/>
    <linearGradient id="linear-gradient-9" x1="-7.81" y1="0.687" x2="-2.75" y2="0.304" xlink:href="#linear-gradient-5"/>
    <linearGradient id="linear-gradient-11" x1="16.815" y1="-9.999" x2="20.646" y2="-12.157" xlink:href="#linear-gradient-5"/>
    <linearGradient id="linear-gradient-12" x1="17.724" y1="-11.482" x2="17.603" y2="-11.075" xlink:href="#linear-gradient-5"/>
    <linearGradient id="linear-gradient-13" x1="-3.255" y1="0.447" x2="6.41" y2="0.998" xlink:href="#linear-gradient-5"/>
    <linearGradient id="linear-gradient-14" x1="-3.767" y1="0.541" x2="-2.104" y2="0.457" xlink:href="#linear-gradient-5"/>
    <linearGradient id="linear-gradient-15" x1="-5.104" y1="-1.204" x2="-5.661" y2="0.63" xlink:href="#linear-gradient-5"/>
    <linearGradient id="linear-gradient-16" x1="-2.132" y1="0.5" x2="2.803" y2="0.919" xlink:href="#linear-gradient-5"/>
    <linearGradient id="linear-gradient-17" x1="-4.928" y1="0.687" x2="0.132" y2="0.304" xlink:href="#linear-gradient-5"/>
    <linearGradient id="linear-gradient-19" x1="-4.777" y1="0.987" x2="-7.346" y2="-0.824" xlink:href="#linear-gradient"/>
    <linearGradient id="linear-gradient-20" x1="-8.623" y1="0.719" x2="-5.184" y2="0.185" xlink:href="#linear-gradient"/>
    <linearGradient id="linear-gradient-21" x1="-12.035" y1="0.82" x2="-14.336" y2="-0.811" xlink:href="#linear-gradient"/>
    <linearGradient id="linear-gradient-22" x1="-14.976" y1="0.78" x2="-12.529" y2="0.208" xlink:href="#linear-gradient"/>
    <linearGradient id="linear-gradient-23" x1="-1.088" y1="1.064" x2="-1.274" y2="0.604" xlink:href="#linear-gradient-5"/>
    <linearGradient id="linear-gradient-24" x1="-2.871" y1="1.228" x2="1.165" y2="0.069" xlink:href="#linear-gradient-5"/>
    <linearGradient id="linear-gradient-25" x1="-1.053" y1="0.106" x2="-0.28" y2="1.298" xlink:href="#linear-gradient-5"/>
    <linearGradient id="linear-gradient-26" x1="-2.586" y1="1.241" x2="1.451" y2="0.082" xlink:href="#linear-gradient-5"/>
    <radialGradient id="radial-gradient" cx="0.058" cy="0.418" r="0.311" gradientUnits="objectBoundingBox">
      <stop offset="0" stop-color="#fff"/>
      <stop offset="1"/>
    </radialGradient>
    <radialGradient id="radial-gradient-2" cx="0.119" cy="0.48" r="0.336" xlink:href="#radial-gradient"/>
    <linearGradient id="linear-gradient-27" x1="0.5" x2="0.5" y2="1" gradientUnits="objectBoundingBox">
      <stop offset="0" stop-color="#fff"/>
      <stop offset="1" stop-color="#e8e8e8"/>
    </linearGradient>
  </defs>
  <g id="Grupo_2753" data-name="Grupo 2753" transform="translate(-102.609 -525)">
    <g id="Grupo_2603" data-name="Grupo 2603" transform="translate(102.609 525)">
      <g id="Grupo_2440" data-name="Grupo 2440" transform="translate(240.779 335.969)" opacity="0.2">
        <path id="Trazado_6687" data-name="Trazado 6687" d="M422.719,320.066l4.086,26.275-23.641-13.612-4.087-26.274Z" transform="translate(-399.078 -306.455)" fill="url(#linear-gradient)"/>
        <path id="Trazado_6688" data-name="Trazado 6688" d="M404.623,320.011l4.086,26.275,23.452-13.612-4.087-26.2Z" transform="translate(-381.046 -306.4)" fill="url(#linear-gradient-2)"/>
      </g>
      <g id="Grupo_2441" data-name="Grupo 2441" transform="translate(401.991 440.134)" opacity="0.2">
        <path id="Trazado_6689" data-name="Trazado 6689" d="M475.386,344.566,460.635,367.7l-23.641-13.612,14.751-23.133Z" transform="translate(-436.994 -330.954)" fill="url(#linear-gradient-3)"/>
        <path id="Trazado_6690" data-name="Trazado 6690" d="M457.291,344.511l-14.752,23.132,23.452-13.612,14.752-23.06Z" transform="translate(-418.963 -330.899)" fill="url(#linear-gradient-4)"/>
      </g>
      <g id="Grupo_2442" data-name="Grupo 2442" transform="translate(241.072 0)">
        <path id="Trazado_6691" data-name="Trazado 6691" d="M474.534,244.25l-51.746,318.7L399.147,549.34l51.747-318.7Z" transform="translate(-399.147 -217.026)" fill="url(#linear-gradient-5)"/>
        <path id="Trazado_6692" data-name="Trazado 6692" d="M456.438,244.195,404.692,562.9l23.451-13.612,51.747-318.63Z" transform="translate(-381.115 -216.971)" fill="url(#linear-gradient-6)"/>
        <path id="Trazado_6693" data-name="Trazado 6693" d="M458.345,241.121,434.894,254.66l-23.576-13.612,23.576-13.611Z" transform="translate(-359.57 -227.437)" fill="url(#linear-gradient-7)"/>
      </g>
      <g id="Grupo_2443" data-name="Grupo 2443" transform="translate(0 303.59)">
        <path id="Trazado_6694" data-name="Trazado 6694" d="M806.3,432.111,582.706,298.839,342.448,431.793,570.762,570.141Z" transform="translate(-342.448 -298.839)" fill="#1b1c1d" opacity="0.02"/>
        <path id="Trazado_6695" data-name="Trazado 6695" d="M794.03,428.1,578.865,299.712,343.746,429,565.485,562.719Z" transform="translate(-338.226 -296.001)" fill="#1b1c1d" opacity="0.036"/>
        <path id="Trazado_6696" data-name="Trazado 6696" d="M781.758,424.091,575.024,300.585,345.044,426.21,560.207,555.3Z" transform="translate(-334.005 -293.162)" fill="#1b1c1d" opacity="0.053"/>
        <path id="Trazado_6697" data-name="Trazado 6697" d="M769.487,420.082l-198.3-118.623L346.342,423.42,554.93,547.876Z" transform="translate(-329.783 -290.323)" fill="#1b1c1d" opacity="0.069"/>
        <path id="Trazado_6698" data-name="Trazado 6698" d="M757.215,416.072,567.342,302.331l-219.7,118.3L549.653,540.455Z" transform="translate(-325.561 -287.485)" fill="#1b1c1d" opacity="0.085"/>
        <path id="Trazado_6699" data-name="Trazado 6699" d="M744.944,412.062,563.5,303.2,348.939,417.837l195.437,115.2Z" transform="translate(-321.34 -284.646)" fill="#1b1c1d" opacity="0.102"/>
        <path id="Trazado_6700" data-name="Trazado 6700" d="M732.672,408.053,559.66,304.077,350.237,415.046,539.1,525.612Z" transform="translate(-317.118 -281.807)" fill="#1b1c1d" opacity="0.118"/>
        <path id="Trazado_6701" data-name="Trazado 6701" d="M720.4,404.043,555.819,304.95,351.535,412.255,533.822,518.19Z" transform="translate(-312.896 -278.969)" fill="#1b1c1d" opacity="0.135"/>
        <path id="Trazado_6702" data-name="Trazado 6702" d="M708.129,400.034l-156.151-94.21L352.834,409.464l175.711,101.3Z" transform="translate(-308.675 -276.13)" fill="#1b1c1d" opacity="0.151"/>
        <path id="Trazado_6703" data-name="Trazado 6703" d="M695.858,396.024,548.138,306.7,354.132,406.673l169.136,96.675Z" transform="translate(-304.453 -273.291)" fill="#1b1c1d" opacity="0.167"/>
        <path id="Trazado_6704" data-name="Trazado 6704" d="M683.587,392.014,544.3,307.569,355.43,403.882l162.56,92.044Z" transform="translate(-300.231 -270.453)" fill="#1b1c1d" opacity="0.184"/>
        <path id="Trazado_6705" data-name="Trazado 6705" d="M671.315,388l-130.86-79.563L356.728,401.091,512.713,488.5Z" transform="translate(-296.01 -267.614)" fill="#1b1c1d" opacity="0.2"/>
      </g>
      <g id="Grupo_2444" data-name="Grupo 2444" transform="translate(292.819 0)">
        <path id="Trazado_6706" data-name="Trazado 6706" d="M434.958,244.25,558.964,667.5l-23.641-13.612L411.317,230.638Z" transform="translate(-411.317 -217.026)" fill="url(#linear-gradient-8)"/>
        <path id="Trazado_6707" data-name="Trazado 6707" d="M416.862,244.195,540.868,667.444l23.452-13.612L440.314,230.655Z" transform="translate(-393.286 -216.971)" fill="url(#linear-gradient-9)"/>
        <path id="Trazado_6708" data-name="Trazado 6708" d="M458.345,241.121,434.894,254.66l-23.576-13.611,23.576-13.612Z" transform="translate(-411.317 -227.437)" fill="url(#linear-gradient-7)"/>
      </g>
      <g id="Grupo_2445" data-name="Grupo 2445" transform="translate(209.342 354.402)">
        <path id="Trazado_6709" data-name="Trazado 6709" d="M394.838,419.436l3.69,9.564L586.292,322.121l-3.68-9.538Z" transform="translate(-381.429 -304.96)" fill="url(#linear-gradient-11)"/>
        <path id="Trazado_6710" data-name="Trazado 6710" d="M592.867,318.413,405.093,425.266l-13.409-7.6L579.506,310.79Z" transform="translate(-391.684 -310.79)" fill="url(#linear-gradient-12)"/>
      </g>
      <g id="Grupo_2446" data-name="Grupo 2446" transform="translate(28.587 121.501)">
        <path id="Trazado_6711" data-name="Trazado 6711" d="M424.559,272.827l-51.747,318.7-23.641-13.612,51.747-318.7Z" transform="translate(-349.171 -245.602)" fill="url(#linear-gradient-13)"/>
        <path id="Trazado_6712" data-name="Trazado 6712" d="M406.463,272.772l-51.746,318.7,23.451-13.612,51.747-318.629Z" transform="translate(-331.139 -245.547)" fill="url(#linear-gradient-14)"/>
        <path id="Trazado_6713" data-name="Trazado 6713" d="M408.37,269.7l-23.452,13.54-23.577-13.612,23.577-13.612Z" transform="translate(-309.595 -256.013)" fill="url(#linear-gradient-15)"/>
      </g>
      <g id="Grupo_2447" data-name="Grupo 2447" transform="translate(80.334 121.501)">
        <path id="Trazado_6714" data-name="Trazado 6714" d="M384.983,272.827,508.988,696.076l-23.641-13.612L361.342,259.214Z" transform="translate(-361.342 -245.602)" fill="url(#linear-gradient-16)"/>
        <path id="Trazado_6715" data-name="Trazado 6715" d="M366.887,272.772,490.892,696.021l23.452-13.612L390.338,259.231Z" transform="translate(-343.31 -245.547)" fill="url(#linear-gradient-17)"/>
        <path id="Trazado_6716" data-name="Trazado 6716" d="M408.37,269.7l-23.452,13.54-23.577-13.612,23.577-13.612Z" transform="translate(-361.342 -256.013)" fill="url(#linear-gradient-15)"/>
      </g>
      <g id="Grupo_2448" data-name="Grupo 2448" transform="translate(28.775 457.115)" opacity="0.2">
        <path id="Trazado_6717" data-name="Trazado 6717" d="M372.857,348.56l4.087,26.274L353.3,361.222l-4.087-26.274Z" transform="translate(-349.215 -334.948)" fill="url(#linear-gradient-19)"/>
        <path id="Trazado_6718" data-name="Trazado 6718" d="M354.761,348.5l4.087,26.274L382.3,361.167l-4.086-26.2Z" transform="translate(-331.184 -334.893)" fill="url(#linear-gradient-20)"/>
      </g>
      <g id="Grupo_2449" data-name="Grupo 2449" transform="translate(189.986 561.279)" opacity="0.2">
        <path id="Trazado_6719" data-name="Trazado 6719" d="M425.524,373.058l-14.751,23.133L387.132,382.58l14.751-23.133Z" transform="translate(-387.132 -359.447)" fill="url(#linear-gradient-21)"/>
        <path id="Trazado_6720" data-name="Trazado 6720" d="M407.428,373l-14.751,23.133,23.452-13.612,14.751-23.06Z" transform="translate(-369.1 -359.392)" fill="url(#linear-gradient-22)"/>
      </g>
      <g id="Grupo_2451" data-name="Grupo 2451" transform="translate(64.873 19.964)">
        <path id="Trazado_6721" data-name="Trazado 6721" d="M409.787,520.032,689.232,359.166c11.794-6.769,17.8-24.15,13.406-38.823l-13.41-44.771c-2.228-7.445,6.782-7.87,1.369-10.413-.442-.208-14.38-5.289-14.834-5.463a18.34,18.34,0,0,0-15.851,1.573L380.467,422.135c-11.794,6.773-17.8,24.154-13.406,38.823l13.41,44.771c2.4,8.023,7.415,13.576,13.4,15.85.191.072,14.405,5.4,14.6,5.468C413.278,528.689,404.647,522.983,409.787,520.032Z" transform="translate(-331.961 -146.165)" fill="url(#linear-gradient-23)"/>
        <path id="Trazado_6722" data-name="Trazado 6722" d="M413.1,521.277,692.547,360.41c11.8-6.773,17.8-24.154,13.41-38.823l-13.41-44.771c-4.392-14.673-17.517-21.076-29.316-14.3L383.787,423.379c-11.8,6.769-17.8,24.15-13.406,38.823l13.406,44.771C388.183,521.642,401.309,528.046,413.1,521.277Z" transform="translate(-321.173 -142.124)" fill="url(#linear-gradient-24)"/>
        <path id="Trazado_6723" data-name="Trazado 6723" d="M401.866,493.6,681.311,332.729c11.8-6.769,17.8-24.15,13.41-38.823l-13.41-44.771c-2.228-7.445,6.781-7.87,1.369-10.412-.442-.208-14.379-5.289-14.835-5.464a18.34,18.34,0,0,0-15.85,1.573L372.55,395.7c-11.8,6.773-17.8,24.154-13.406,38.823l13.406,44.771c2.4,8.023,7.42,13.576,13.4,15.851.2.072,14.409,5.4,14.605,5.468C405.361,502.252,396.73,496.546,401.866,493.6Z" transform="translate(-357.706 -232.132)" fill="url(#linear-gradient-25)"/>
        <path id="Trazado_6724" data-name="Trazado 6724" d="M405.186,494.841,684.63,333.975c11.8-6.773,17.8-24.155,13.406-38.823L684.63,250.38c-4.4-14.673-17.522-21.076-29.316-14.307L375.87,396.943c-11.8,6.769-17.8,24.15-13.406,38.823l13.406,44.771C380.262,495.206,393.387,501.61,405.186,494.841Z" transform="translate(-346.918 -228.093)" fill="url(#linear-gradient-26)"/>
        <path id="Trazado_6725" data-name="Trazado 6725" d="M383.271,423.146,662.715,262.279A18.322,18.322,0,0,1,678,260.544a18.964,18.964,0,0,0-11.305,2.6L387.259,424.013c-11.8,6.769-17.8,24.15-13.41,38.823l13.41,44.771c2.16,7.211,6.433,12.411,11.62,15.043a17.472,17.472,0,0,1-4.12-.982c-5.119-2.649-9.35-7.785-11.488-14.928l-13.406-44.771C365.469,447.3,371.472,429.919,383.271,423.146Z" transform="translate(-322.851 -142.813)" fill="url(#radial-gradient)" style="mix-blend-mode: color-dodge;isolation: isolate"/>
        <path id="Trazado_6726" data-name="Trazado 6726" d="M375.354,396.709,654.8,235.842a18.322,18.322,0,0,1,15.29-1.735,18.954,18.954,0,0,0-11.306,2.6L379.338,397.576c-11.795,6.769-17.8,24.15-13.406,38.823l13.41,44.771c2.16,7.211,6.433,12.411,11.62,15.043a17.685,17.685,0,0,1-4.12-.982c-5.119-2.653-9.35-7.785-11.488-14.928l-13.406-44.771C357.552,420.863,363.555,403.482,375.354,396.709Z" transform="translate(-348.596 -228.78)" fill="url(#radial-gradient-2)" style="mix-blend-mode: color-dodge;isolation: isolate"/>
        <g id="Grupo_2450" data-name="Grupo 2450" transform="translate(63.143 48.407)">
          <path id="Trazado_6738" data-name="Trazado 6738" d="M421.878,532.4,647.866,405.13,598.545,243.517,372.557,370.787Z" transform="translate(-372.557 -243.517)" fill="#1b1c1d" opacity="0.3"/>
        </g>
        <path id="Trazado_6740" data-name="Trazado 6740" d="M589.347,250.405,632.949,396,422.231,516.924l-43.6-145.585L589.347,250.405Zm2.368-5.935L373.926,369.46l45.936,153.4L637.66,397.87l-45.945-153.4Z" transform="translate(-304.96 -192.012)" fill="#707070"/>
      </g>
    </g>
    <g id="Grupo_2604" data-name="Grupo 2604" transform="translate(295.798 645.855)">
      <g id="Grupo_2468" data-name="Grupo 2468" transform="translate(0 0)">
        <ellipse id="Elipse_28" data-name="Elipse 28" cx="72.906" cy="50.752" rx="72.906" ry="50.752" transform="translate(0 131.35) rotate(-64.266)" fill="#db2828"/>
      </g>
      <g id="Grupo_2469" data-name="Grupo 2469" transform="translate(29.858 29.223)">
        <path id="Trazado_6789" data-name="Trazado 6789" d="M422.615,378.977c-11.693-2.466-20.532-10.863-24.886-23.648-8.806-25.86,3.686-62.276,27.845-81.184,11.948-9.35,24.971-13.142,36.659-10.676s20.528,10.863,24.881,23.648c8.805,25.86-3.686,62.276-27.845,81.184a53.19,53.19,0,0,1-21.637,10.574A36.354,36.354,0,0,1,422.615,378.977Zm5.191-103.085c-23.449,18.351-35.575,53.7-27.029,78.794,4.052,11.9,12.1,19.677,22.654,21.9s22.5-1.339,33.611-10.034c23.449-18.351,35.57-53.7,27.024-78.794-4.048-11.9-12.092-19.677-22.654-21.9a32.421,32.421,0,0,0-13.393.106A49.828,49.828,0,0,0,427.807,275.892Z" transform="translate(-394.907 -262.734)" fill="url(#linear-gradient-27)"/>
      </g>
      <g id="Grupo_2471" data-name="Grupo 2471" transform="matrix(0.978, 0.208, -0.208, 0.978, 65.891, 44.352)">
        <g id="Grupo_2470" data-name="Grupo 2470" transform="translate(0 0)">
          <path id="Trazado_6790" data-name="Trazado 6790" d="M24.642,75.453c-2.6-.409-4.442-2.158-5.481-5.2a12.256,12.256,0,0,1,.042-8.254,16.873,16.873,0,0,1,5.772-7.437c3.154-2.473,5.918-3.479,8.447-3.065,2.576.423,4.414,2.191,5.457,5.256a11.952,11.952,0,0,1-.2,8.344A17.518,17.518,0,0,1,32.9,72.524a13.837,13.837,0,0,1-5.528,2.844A7.636,7.636,0,0,1,24.642,75.453ZM0,15.574,19.9,0,32.276,44.329,16.669,56.541Z" transform="translate(0)" fill="url(#linear-gradient-27)"/>
        </g>
      </g>
    </g>
  </g>
</svg>
