<svg xmlns="http://www.w3.org/2000/svg" width="171.337" height="90" viewBox="0 0 171.337 90">
  <g id="Grupo_2295" data-name="Grupo 2295" transform="translate(-778 -148.668)">
    <g id="fi-rr-lock" transform="translate(776 148.668)">
      <path id="Trazado_6444" data-name="Trazado 6444" d="M65.75,31.59V26.25a26.25,26.25,0,1,0-52.5,0v5.34A18.75,18.75,0,0,0,2,48.75v22.5A18.773,18.773,0,0,0,20.75,90h37.5A18.773,18.773,0,0,0,77,71.25V48.75A18.75,18.75,0,0,0,65.75,31.59Zm-45-5.34a18.75,18.75,0,1,1,37.5,0V30H20.75Zm48.75,45A11.25,11.25,0,0,1,58.25,82.5H20.75A11.25,11.25,0,0,1,9.5,71.25V48.75A11.25,11.25,0,0,1,20.75,37.5h37.5A11.25,11.25,0,0,1,69.5,48.75Z" transform="translate(0 0)" fill="#285f94"/>
      <path id="Trazado_6445" data-name="Trazado 6445" d="M14.47,14A3.47,3.47,0,0,0,11,17.47v6.939a3.47,3.47,0,1,0,6.939,0V17.47A3.47,3.47,0,0,0,14.47,14Z" transform="translate(25.03 39.285)" fill="#285f94"/>
    </g>
    <path id="fi-rr-password" d="M54.033,44.88a3.788,3.788,0,0,1-3.788,3.788H35.092a3.788,3.788,0,1,1,0-7.576H50.245A3.788,3.788,0,0,1,54.033,44.88ZM52.923,8.11a3.788,3.788,0,0,0-5.356,0l-4.9,4.9-4.9-4.9a3.788,3.788,0,1,0-5.357,5.357l4.9,4.9-4.9,4.9a3.788,3.788,0,1,0,5.357,5.357l4.9-4.9,4.9,4.9a3.788,3.788,0,1,0,5.357-5.357l-4.9-4.9,4.9-4.9a3.788,3.788,0,0,0,0-5.356ZM80.549,41.092H65.4a3.788,3.788,0,0,0,0,7.576H80.549a3.788,3.788,0,1,0,0-7.576Zm-2.22-22.728,4.9-4.9A3.788,3.788,0,1,0,77.87,8.109l-4.9,4.9-4.9-4.9a3.788,3.788,0,1,0-5.357,5.357l4.9,4.9-4.9,4.9a3.788,3.788,0,1,0,5.357,5.357l4.9-4.9,4.9,4.9a3.788,3.788,0,1,0,5.357-5.357ZM19.94,41.092H4.788a3.788,3.788,0,1,0,0,7.576H19.94a3.788,3.788,0,1,0,0-7.576ZM22.618,8.11a3.788,3.788,0,0,0-5.356,0l-4.9,4.9-4.9-4.9a3.788,3.788,0,1,0-5.357,5.357l4.9,4.9-4.9,4.9a3.788,3.788,0,1,0,5.357,5.357l4.9-4.9,4.9,4.9a3.788,3.788,0,1,0,5.357-5.357l-4.9-4.9,4.9-4.9a3.788,3.788,0,0,0,0-5.356Z" transform="translate(865 186.668)" fill="#285f94"/>
  </g>
</svg>
