<svg xmlns="http://www.w3.org/2000/svg" viewBox="0 0 1000 1000"><title>4Mesa de trabajo 1</title><g id="PARTES_CARA_MUJERES" data-name="PARTES CARA MUJERES"><g id="ojos"><g id="_4" data-name="4"><ellipse cx="398.08" cy="472.91" rx="12.82" ry="18.39" style="fill:#2d381a"/><path d="M405,459.12c2.62-9.57-27.94-4.86-34.06-6.3-10.51-2.48-14.44,8.51-4.51,11.23,8.63,2.37,15.88.68,23.85-1.87a50.87,50.87,0,0,1,6.69-1.81c1.83-.32,3.94-.15,5.7-.52.55-.12,2.18-.16,2.34-.73Z" style="fill:#2d381a"/><ellipse cx="588.05" cy="472.91" rx="12.82" ry="18.39" style="fill:#2d381a"/><path d="M581.67,459.47c2.38.67,5,.47,7.53.9,3.88.68,7.37,2.11,11,3.2a34.78,34.78,0,0,0,19.52.48c9.91-2.72,6-13.72-4.51-11.23-9.05,2.14-19.31-1.82-28.2,1-1.16.37-9.51,4.44-5.35,5.61Z" style="fill:#2d381a"/></g></g></g></svg>