<svg xmlns="http://www.w3.org/2000/svg" viewBox="0 0 1000 1000"><title>1Mesa de trabajo 1</title><g id="PARTES_CARA_MUJERES" data-name="PARTES CARA MUJERES"><g id="ojos"><g id="_5" data-name="5"><path d="M648.1,461.87s-4.77,26.45-25.73,29.57c-10,1.49-27.08-2-27.08-2s-3.39-28.85,20.16-33.3C625.38,454.22,648.1,461.87,648.1,461.87Z" style="fill:#5f3b15"/><path d="M615.45,456.1s31.22-.34,57.55,17.7c0,0-45.22-13.94-57.55-8.85Z" style="fill:#5f3b15"/><path d="M350.87,461.87s4.57,26.45,24.67,29.57c9.59,1.49,26-2,26-2s3.25-28.85-19.33-33.3C372.66,454.22,350.87,461.87,350.87,461.87Z" style="fill:#5f3b15"/><path d="M382.19,456.1s-29.94-.34-55.19,17.7c0,0,43.36-13.94,55.19-8.85Z" style="fill:#5f3b15"/></g></g></g></svg>