<svg xmlns="http://www.w3.org/2000/svg" viewBox="0 0 1000 1000"><title>1Mesa de trabajo 1</title><g id="partes_de_cara_masculino" data-name="partes de cara masculino"><g id="nariz"><g id="_2" data-name="2"><path d="M489.23,578.44s1.37-1.31,3.86-3.45c1.18-1.14,2.61-2.47,4.13-4.13a66.91,66.91,0,0,0,4.7-5.91,30.07,30.07,0,0,0,5.34-17.4c-.14-6.8-2.35-14.18-5.28-21.33s-6.23-14.38-9-21.4a126.35,126.35,0,0,1-6.57-20,62.19,62.19,0,0,1-1.59-15.13,29.52,29.52,0,0,1,.32-4.22l.17-1.47s.2,2.08.82,5.56A73.32,73.32,0,0,0,490,483.35c2.08,5.49,4.95,11.64,8.16,18.25s6.78,13.69,9.88,21.32c2.95,7.62,5.52,16.14,5.08,24.82a30.68,30.68,0,0,1-2.82,11.85,31.58,31.58,0,0,1-5.61,8.46,37,37,0,0,1-6,5.17c-1.89,1.31-3.62,2.3-5,3.12C490.9,577.74,489.23,578.44,489.23,578.44Z" style="fill:#e2a97a"/></g></g></g></svg>