<svg xmlns="http://www.w3.org/2000/svg" viewBox="0 0 1000 1000"><title>1Mesa de trabajo 1</title><g id="partes_de_cara_masculino" data-name="partes de cara masculino"><g id="nariz"><g id="_3" data-name="3"><path d="M479.53,575.42l1.46.51a10.79,10.79,0,0,0,1.77.53l2.35.1c3.55,0,8.51-1.91,13.72-5.45s11-9,14.17-15.9c1.55-3.61,1.38-6.38-.64-8.26-2.75-2.84-6.53-5.66-9.67-9-3.05-3.84-6.53-7.38-8.78-11.71-1.24-2.08-2.52-4.11-3.6-6.23l-2.64-6.66c-2-4.22-2.4-9-3.45-13.2-.73-4.29-.54-8.51-.75-12.26.18-3.78.88-7.2,1.29-10.18.25-3,1.5-5.42,2-7.47,1.33-4,2.18-6.26,2.18-6.26s-.26,2.48-.87,6.65c-.18,2.1-1,4.53-.77,7.49s0,6.17.13,9.66c.65,3.46.88,7.26,1.82,11.07,1.32,3.7,1.93,7.88,4,11.59l2.65,5.81,3.44,5.45c2.1,3.93,5.17,6.75,7.79,10.1,3,3.32,6.38,5.85,9.78,9.45a9.68,9.68,0,0,1,2.59,3.94,10.61,10.61,0,0,1,1,4.9,18,18,0,0,1-2.07,8.37A33.86,33.86,0,0,1,509.92,569a41.32,41.32,0,0,1-9.29,6.18c-6.11,3-11.82,3.62-15.65,2.91a9.29,9.29,0,0,1-4.13-1.77Z" style="fill:#e5a977"/></g></g></g></svg>