<svg xmlns="http://www.w3.org/2000/svg" viewBox="0 0 1000 1000"><title>1Mesa de trabajo 1</title><g id="ropa_masculino" data-name="ropa masculino"><g id="_1" data-name="1"><path d="M386.53,893c-5.68-2.94-132.6-44.25-132.6-44.25C197.42,861.63,184.75,949.34,179,1001H314Z" style="fill:#ce241a;fill-rule:evenodd"/><path d="M611.47,893c5.68-2.94,132.61-44.25,132.61-44.25C800.58,861.63,813.25,949.34,819,1001H684Z" style="fill:#ce241a;fill-rule:evenodd"/><path d="M499,894.21c-98.38-5.37-84.17-93.75-85.29-94.19-31.76,10-147.55,41.37-160.52,49.13,10.53,15.92,26.48,81.43,40.28,151.84H704.54c13.79-70.41,29.75-135.93,40.27-151.84-13-7.77-128.76-39.12-160.52-49.13C583.17,800.46,597.38,888.85,499,894.21Z" style="fill:#33333c;fill-rule:evenodd"/><path d="M499,894.22c-98.38-5.37-84.17-93.75-85.3-94.19l-.81.25c-6.29,2-15.56,4.69-26.52,7.86q-.12,2.39-.12,4.81v.21c.07,31.48,15.24,59.64,39.11,78.52a115,115,0,0,0,71.49,24.45c38.14,0,71.78-18,91.66-45.43a98.38,98.38,0,0,0,18.23-46,96.86,96.86,0,0,0,.71-11.71q0-.64,0-1.29,0-2.41-.18-4.79c-9.06-2.63-16.72-4.9-22.16-6.6l-.8-.25C583.17,800.46,597.38,888.85,499,894.22Z" style="fill:#d89d66;fill-rule:evenodd"/><path d="M499,894.22c-98.38-5.37-69.88-97.78-71-98.21l-15.1,4.27c-6.29,2-15.56,4.69-26.52,7.86q-.12,2.39-.12,4.81v.21c.07,31.48,15.24,59.64,39.11,78.52a115,115,0,0,0,71.49,24.45c38.14,0,71.78-18,91.66-45.43a98.38,98.38,0,0,0,18.23-46,96.86,96.86,0,0,0,.71-11.71q0-.64,0-1.29l-.18-4.79c-9.06-2.63-16.72-4.9-22.16-6.6-.27-.08-14.83-5.2-15.1-5.28C568.88,795.44,597.38,888.85,499,894.22Z" style="fill:#ce241a;fill-rule:evenodd"/></g></g></svg>