<svg xmlns="http://www.w3.org/2000/svg" viewBox="0 0 1000 1000"><title>1Mesa de trabajo 1</title><g id="ropa_masculino" data-name="ropa masculino"><path d="M386.53,890.3c-5.68-3-132.61-45.36-132.61-45.36C197.42,858.15,184.75,948,179,1001H314Z" style="fill:#6e5fa6;fill-rule:evenodd"/><path d="M611.47,890.3c5.68-3,132.6-45.36,132.6-45.36C800.58,858.15,813.25,948,819,1001H684Z" style="fill:#6e5fa6;fill-rule:evenodd"/><path d="M499,891.55c-98.38-5.5-69.88-96.1-71-96.55-31.76,10.26-161.84,42.4-174.81,50.36,10.52,16.32,26.48,83.47,40.27,155.64H704.54c13.8-72.17,29.75-139.32,40.27-155.64-13-8-143.05-40.1-174.81-50.36C568.88,795.45,597.38,886,499,891.55Z" style="fill:#382666;fill-rule:evenodd"/></g></svg>