<svg xmlns="http://www.w3.org/2000/svg" viewBox="0 0 1000 1000"><title>1Mesa de trabajo 1</title><g id="ropa_masculino" data-name="ropa masculino"><path d="M495.14,876c10.62-12.18,49.28-50.38,53.11-60.5,31.06-5.12,46.11-4.78,89.19-6.9,80.07,14.25,109.12,32.51,145.77,57.86,22.32,15.93,32.64,45.43,35.78,73.83H683.34v60.51c-74.26.05-87.94.16-121.18.16l-57.72-.14c-38.12.32-146.16,0-189.79,0V940.33H179c3.17-28.4,13.47-57.91,35.81-73.83,36.65-25.35,65.71-43.61,145.77-57.86,29.86,0,38.66.21,69.71,5.34,16.34,1.6,64.84,62.06,64.84,62.06Z" style="fill:#ed8223"/><path d="M495.14,876l-.14.17S472.1,806.11,428,795L290.78,820.83l99.4,36,50.74-27.62Z" style="fill:#f6a427"/><ellipse cx="494.96" cy="889.09" rx="14.57" ry="7.2" style="fill:#f6a427"/><ellipse cx="494.96" cy="913.07" rx="14.57" ry="7.2" style="fill:#f6a427"/><path d="M495,876l0,.17s30.9-70.09,75-81.21l129.35,25.83-99.39,36-50.78-27.62Z" style="fill:#f6a427"/><polygon points="179 940.33 179 1001 819 1001 819 934.03 179.82 934.03 179 940.33" style="fill:#ed8223"/></g></svg>