<svg xmlns="http://www.w3.org/2000/svg" viewBox="0 0 1000 1000"><title>1Mesa de trabajo 1</title><g id="cabello_hombre" data-name="cabello hombre"><g id="_2" data-name="2"><path d="M580.5,228.17c4.58,40.89-48.86,72.34-71.77,95.93,7.63-22,15.28-42.46,21.38-64.48-24.43,42.45-71.51,54.87-120.37,69,18.34-18.12,24.87-47.94,36.21-71.06-13.4,24.16-32.56,45.08-51.17,64.48-18.05,18.84-37.9,26.43-58.46,39.71.25-11.13,1.6-22.5-1.37-33,.64,15.11-2.21,30.1-5.41,44.71-4.33,19.77-9.42,41.12-11.65,60.94-2.34,20.64-3.53,40.41-9.38,60.47-17.75-40.21-37.8-83.5-40.92-129-.39-5.72-3.26-46.71,1.74-48.84-5.49,2.34-9.39,7.88-12.55,13.3.24-13.15-.45-26.62,5.88-38-3.8,4-8.24,8-11.35,12-4.1-45,33.32-99.34,63.47-126.52,22.91-20.44,64.14-39.31,94.7-39.31-27.49-7.87-56.52,0-84,0,59.56-37.75,180.21-58.2,238.25-4.72,0-18.88-3.05-36.18,9.15-51.9-1.53,20.44,6.11,40.89,9.16,61.34,6.11-22,24.44-51.9,45.82-56.61,0,18.41-12.58,30.75-17.36,47.16-5.62,19.26,8.74,18.93,22.21,23.74,18.58,6.63,35.85,14.43,51.53,27.63,18.27,15.38,43.47,51.69,45,77.78-7.5-5.94-15.41-13.84-23.84-18.57,14.23,8,20.57,47.46,22.38,62.65,2.8,23.5,4.85,46.48,1.64,70A364.54,364.54,0,0,1,713,447.39c-4.22,12.12-7.46,30.28-20.07,35.2-1.35.53-22-103.27-22.66-111-.94-10.87-9.88-55.72-4.2-63.18-13.72,18.08-10.37,38.7-17.9,35.85-23.43-8.88-32.5-84.6-38.61-105.06-3.05,15.73-4.58,33-6.11,48.75a32.65,32.65,0,0,1-6.1-9.43Z" style="fill:#010202"/></g></g></svg>