<svg xmlns="http://www.w3.org/2000/svg" viewBox="0 0 1000 1000"><title>1Mesa de trabajo 1</title><g id="cabello_hombre" data-name="cabello hombre"><path d="M742.55,192.09c-16.06-20.12-29.23-14.82-29.23-14.82s0-24.46-20.76-32.61-36.7,7-36.7,7,2.45-16.31-15.9-28-43.21,7-43.21,7-2.06-19.8-25.3-22.13-33.89,11.65-33.89,11.65c-13.1-25.62-37.55-21-37.55-21s-24.46-4.66-37.55,21c0,0-10.65-14-33.89-11.65s-25.3,22.13-25.3,22.13-24.85-18.64-43.2-7-15.9,28-15.9,28-15.9-15.14-36.7-7-20.77,32.61-20.77,32.61-13.17-5.29-29.23,14.82,29.23,234.17,29.23,234.17,26.88-167.46,35.45-177.94S396.51,272.77,500,272.77s169.31-34.94,177.88-24.46,35.44,177.94,35.44,177.94S758.62,212.21,742.55,192.09Z" style="fill:#4a3013"/></g></svg>