<svg xmlns="http://www.w3.org/2000/svg" viewBox="0 0 1000 1000"><title>1Mesa de trabajo 1</title><g id="partes_de_cara_masculino" data-name="partes de cara masculino"><g id="cejas"><g id="_2" data-name="2"><path d="M398.55,408c14.4-3,39-8.35,35.47-13.72-3.4-5.12-19.36-2.08-25.81-1.47-13.51,1.28-27.33,1.94-37.61,7.71-5.16,2.9-13,8.56-4.13,11,8,2.22,15.74.16,23.17-1.68C391.2,409.51,394.46,408.87,398.55,408Z" style="fill:#080909"/><path d="M601.45,408c-14.4-3-39-8.35-35.47-13.72,3.4-5.12,19.36-2.08,25.81-1.47,13.51,1.28,27.33,1.94,37.61,7.71,5.16,2.9,13,8.56,4.13,11-8,2.22-15.74.16-23.17-1.68C608.8,409.51,605.54,408.87,601.45,408Z" style="fill:#080909"/></g></g></g></svg>