<svg xmlns="http://www.w3.org/2000/svg" viewBox="0 0 1000 1000"><title>1Mesa de trabajo 1</title><g id="partes_de_cara_masculino" data-name="partes de cara masculino"><g id="cejas"><g id="_3" data-name="3"><path d="M426.7,410.62l-3.6-1.73c-2.28-1.05-5.54-2.45-9.43-3.9a111,111,0,0,0-13.38-3.93c-2.46-.52-5-1-7.58-1.33a72.23,72.23,0,0,0-7.86-.61L383,399l-2.13.06c-1.43,0-2.88,0-4,.18a67.37,67.37,0,0,0-7.42.93,69.06,69.06,0,0,0-13.13,3.8A62.09,62.09,0,0,0,344,410.62a18.92,18.92,0,0,1,2-3.53,29.8,29.8,0,0,1,3-3.66,32.9,32.9,0,0,1,4.56-4.15,43.79,43.79,0,0,1,13.8-7.27,46.66,46.66,0,0,1,8.78-2,35.22,35.22,0,0,1,4.42-.4l2.13-.1,2.47.06A56.84,56.84,0,0,1,402.68,393a59.84,59.84,0,0,1,7.44,3.34,57.13,57.13,0,0,1,6.13,3.87,46.69,46.69,0,0,1,8,7.19A24.49,24.49,0,0,1,426.7,410.62Z" style="fill:#120804"/><path d="M573.3,410.63a24.46,24.46,0,0,1,2.47-3.23,46.71,46.71,0,0,1,8-7.19,57.08,57.08,0,0,1,6.13-3.87,59.8,59.8,0,0,1,7.44-3.34,56.82,56.82,0,0,1,17.53-3.38l2.47-.06,2.13.1a35.09,35.09,0,0,1,4.42.4,46.69,46.69,0,0,1,8.78,2,43.79,43.79,0,0,1,13.8,7.27,32.9,32.9,0,0,1,4.56,4.15,29.78,29.78,0,0,1,3,3.66,18.9,18.9,0,0,1,2,3.53A62.07,62.07,0,0,0,643.67,404a69.06,69.06,0,0,0-13.13-3.8,67.39,67.39,0,0,0-7.42-.93c-1.16-.15-2.61-.13-4-.18L617,399l-1.8.1a72,72,0,0,0-7.86.61c-2.59.34-5.12.81-7.58,1.33A110.86,110.86,0,0,0,586.33,405c-3.89,1.46-7.15,2.85-9.43,3.9Z" style="fill:#120804"/></g></g></g></svg>