<svg xmlns="http://www.w3.org/2000/svg" viewBox="0 0 1000 1000"><title>1Mesa de trabajo 1</title><g id="partes_de_cara_masculino" data-name="partes de cara masculino"><g id="cejas"><g id="_4" data-name="4"><path d="M340,430.27s-4.92-5.4-2.85-12.22,10.06-9.28,10.06-9.28-9-11.74-2.46-17.19,16.86,1.08,16.86,1.08-3.55-12.41,5.89-15.09,16.06,9.31,16.06,9.31,5.81-12.44,17.68-10.57S412,389.57,412,389.57s9.61-8.28,19-2.78-.56,22.84-.56,22.84-22.61-15.3-54.29-6.07C357,409.14,340,430.27,340,430.27Z" style="fill:#674019"/><path d="M660,430.27s4.92-5.4,2.85-12.22-10.07-9.28-10.07-9.28,9-11.74,2.46-17.19-16.87,1.08-16.87,1.08,3.55-12.41-5.89-15.09-16.06,9.31-16.06,9.31-5.81-12.44-17.68-10.57-10.74,13.26-10.74,13.26-9.62-8.28-19-2.79.56,22.84.56,22.84,22.62-15.3,54.31-6.07C643,409.14,660,430.27,660,430.27Z" style="fill:#674019"/></g></g></g></svg>