<svg xmlns="http://www.w3.org/2000/svg" viewBox="0 0 1000 1000"><title>Mesa de trabajo 1</title><g id="bocas"><g id="_2" data-name="2"><path d="M521.95,617.13c-12.25,0-24.61-.42-36.94-.42H464.34c-7.08,0-11.3-1.76-17.53-4.57-.69-.61-1.41-1.25-2.12-1.78,3,3.56,4.31,8.22,7.29,11.79a82.84,82.84,0,0,0,14.25,13.17c11.82,8.78,24.22,12.78,39,12.31,9.75-.32,19.84-2.59,27.92-8.27a71.71,71.71,0,0,0,14.14-13.9,63,63,0,0,0,5.39-7.68c.91-1.57,2-5.71,3.31-6.74C546.73,618.1,533,617.1,521.95,617.13Z" style="fill:#d6815c"/><path d="M556.89,610c-6.22,2.43-16.27-1.71-22.58-3.07-12.15-2.61-25.89-10-33.53,4.48.94-1.77-6.09-7-7.33-7.61-3.62-1.78-7.62-1.72-11.51-1-12,2.1-27,10.35-39.17,6.57,1.26.39,3.4,4,4.51,4.94a27.18,27.18,0,0,0,6,3.91c15.55,7.66,34.1,2.64,50.63,3.61s35.67,4.57,49.42-7c1-.86,2.52-3,3.9-4.38Z" style="fill:#e58f6d"/></g></g></svg>