<svg xmlns="http://www.w3.org/2000/svg" viewBox="0 0 1000 1000"><title>Mesa de trabajo 1</title><g id="bocas"><g id="_2" data-name="2"><path d="M521.95,619.42c-12.25,0-24.61-.42-36.94-.42H464.34c-7.08,0-11.3-1.76-17.53-4.57-.69-.61-1.41-1.25-2.12-1.78,3,3.56,4.31,8.22,7.29,11.79a82.84,82.84,0,0,0,14.25,13.17c11.82,8.78,24.22,12.78,39,12.31,9.75-.32,19.84-2.59,27.92-8.27a71.71,71.71,0,0,0,14.14-13.9,63,63,0,0,0,5.39-7.68c.91-1.57,2-5.71,3.31-6.74C546.73,620.39,533,619.39,521.95,619.42Z" style="fill:#d6815c"/><path d="M556.89,612.24c-6.22,2.43-16.27-1.71-22.58-3.07-12.15-2.61-25.89-10-33.53,4.48.94-1.77-6.09-7-7.33-7.61-3.62-1.78-7.62-1.72-11.51-1-12,2.1-27,10.35-39.17,6.57,1.26.39,3.4,4,4.51,4.94a27.18,27.18,0,0,0,6,3.91c15.55,7.66,34.1,2.64,50.63,3.61s35.67,4.57,49.42-7c1-.86,2.52-3,3.9-4.38Z" style="fill:#e58f6d"/></g><path id="bigote" d="M575.08,575.29C589,577,585.91,591,577,593.84c-10.29,3.27-23.66,1.44-37.41-6.06A48.88,48.88,0,0,0,500,584.2a48.88,48.88,0,0,0-39.61,3.58c-13.75,7.5-27.12,9.33-37.41,6.06-8.89-2.83-12-16.8,1.94-18.55-11.46-9.37-25.77,6-26.19,12.88-.83,13.51,11.89,35.26,41,38,42.73,4.1,47.44-6.62,59.79-10.36a.58.58,0,0,1,1,0c12.35,3.74,17.06,14.46,59.79,10.36,29.09-2.79,41.8-24.54,41-38C600.85,581.31,586.54,565.92,575.08,575.29Z" style="fill:#3b2314"/></g></svg>