<svg xmlns="http://www.w3.org/2000/svg" viewBox="0 0 1000 1000"><title>Mesa de trabajo 1</title><g id="bocas"><path d="M711.35,410.39,700,453l-20.33,68.09C668.77,540.23,654,564,643.35,573c0,0-27,39-56,50-6.31,2.39-10.24,5.4-12.55,8.64l-3-7.39s-20.79-44.7-56.13-37.42c0,0-13.69-.25-17.64,9.55C493.42,588.79,482,589,482,589c-23.83-4.91-40.78,14.75-48.79,26.94a108,108,0,0,0-8.88,15.18c-2.39-2.66-6-5.11-11.33-7.13-29-11-56-50-56-50-10.7-9-25.52-32.92-36.43-52.09L300,453l-11.35-42.61-5.53,24.09L283,434V554s7,67,17,76,15.74,60.09,15.74,60.09l.19-.4c-2.38,15.56,4.16,38.92,10,55.7,3.05,21.5,16.7,38.77,18.78,41.29a6.6,6.6,0,0,1,.51.71c6.31,10.1,12.55,27.24,13.6,30.18a6.28,6.28,0,0,1,.24.89C369.4,870,401,870.26,405.47,870a6.66,6.66,0,0,1,1.13,0A199.6,199.6,0,0,1,427,874c4.15.83,10.55,3.56,16.61,6.46,7.62,3.65,14.7,7.59,16.13,8.39l.55.28a64.55,64.55,0,0,0,8.41,3.13q1.32.39,2.63.74h0c22.32,10,48.26,0,48.26,0a70.28,70.28,0,0,0,12.18-4s24.16-13,34.67-15a214.59,214.59,0,0,1,22.06-4s37.82,4,49.37-52c0,0,7.35-20,14.71-31a94.84,94.84,0,0,0,17.28-30.32c6-15.3,16.69-46,14.41-65.59h0S690,640,700,631s17-76,17-76V435ZM495,607V887.11h0V607Zm77.27,30.53-.11-.24.19-.13C572.32,637.29,572.29,637.42,572.27,637.54Z" style="fill:#562210"/><path d="M561.12,667.71s-3.9-7.8-11.7-11.7L500,630l-49.41,26c-7.8,3.9-11.7,11.7-11.7,11.7-7.8,14.3,11.7,16.9,11.7,16.9,18.2,0,29.91-18.2,29.91-18.2,6.5-6.5,19.51-7.91,19.51-7.91s11.21,1.21,18,6.59a12.28,12.28,0,0,1,2.26,2.42c2.88,3.95,13.66,17.1,29.14,17.1C549.41,684.61,568.92,682,561.12,667.71Z" style="fill:#d6815c"/></g></svg>