<svg xmlns="http://www.w3.org/2000/svg" viewBox="0 0 1000 1000"><title>Mesa de trabajo 1</title><g id="bocas"><path d="M710,482l-.26.64V482S689.86,516.62,673,540.11l0-.11s-67,80-95,84c0,0-10-21-42-36-22.19-10.4-31.85.38-36,5-4.15-4.62-14.81-15.4-37-5-32,15-42,36-42,36-19.66-2.81-58.53-43.07-80-66.82l0-.18-.5-.42c-6.49-7.21-11.3-12.81-13.37-15.24C309.76,518.47,288,482,288,482s-15,161,33,200c0,0,75.08,51.3,131.71,71.76,12.87,9.11,29.63,17.61,47.29,17.61s33.78-8.62,45.78-17.79C602.35,733,677,682,677,682,725,643,710,482,710,482Z"/><path d="M516.35,615h-31.7C468.8,640.76,447,642.74,447,642.74c11.89,15.85,23.78,17.83,23.78,17.83,10-11.68,23.88-11.19,28-10.74a11.4,11.4,0,0,0,2.42,0c4.28-.45,19-1,29,10.73,0,0,11.89-2,23.78-17.83C554,642.74,532.2,640.76,516.35,615Z" style="fill:#dd8262"/></g></svg>