<svg xmlns="http://www.w3.org/2000/svg" viewBox="0 0 1000 1000"><title>1Mesa de trabajo 1</title><g id="PARTES_CARA_MUJERES" data-name="PARTES CARA MUJERES"><g id="boca"><path d="M435,603.65a113,113,0,0,0,13.36,14.76,108.56,108.56,0,0,0,15.61,12.27q4.2,2.65,8.61,4.91a81.69,81.69,0,0,0,9.11,3.87A68,68,0,0,0,491.2,642c1.61.37,3.25.53,4.87.79.82.09,1.64.15,2.46.22s1.64.15,2.46.15l2.47.08c.82,0,1.64,0,2.47,0,1.65,0,3.28-.2,4.92-.33a59.87,59.87,0,0,0,9.67-1.92,65.13,65.13,0,0,0,17.86-8.31,79.84,79.84,0,0,0,15-13A87.13,87.13,0,0,0,565,603.65a82.22,82.22,0,0,1-26,30,63,63,0,0,1-18.12,8.65,61.23,61.23,0,0,1-9.88,2c-1.68.15-3.35.36-5,.37-.84,0-1.68.08-2.52.06l-2.52-.07c-13.49-.63-26.51-5.6-37.59-13.06A108.57,108.57,0,0,1,435,603.65Z" style="fill:#1e110c"/></g></g></svg>