<svg xmlns="http://www.w3.org/2000/svg" viewBox="0 0 1000 1000"><title>3Mesa de trabajo 1</title><g id="PARTES_CARA_MUJERES" data-name="PARTES CARA MUJERES"><g id="boca"><path id="_3" data-name="3" d="M526,611.5c-14.76,0-29.64-.5-44.48-.5H456.66c-8.52,0-13.61-2.12-21.12-5.5-.84-.73-1.69-1.5-2.55-2.14,3.63,4.28,5.19,9.9,8.78,14.19a99.76,99.76,0,0,0,17.16,15.86c14.23,10.58,29.16,15.39,46.93,14.82,11.74-.38,23.89-3.11,33.62-10,6.48-4.56,12.08-10.59,17-16.74a75.84,75.84,0,0,0,6.49-9.25c1.09-1.89,2.36-6.87,4-8.12C555.88,612.67,539.34,611.47,526,611.5Z" style="fill:#af632e"/></g></g></svg>