<svg xmlns="http://www.w3.org/2000/svg" viewBox="0 0 1000 1000"><title>3Mesa de trabajo 1</title><g id="PARTES_CARA_MUJERES" data-name="PARTES CARA MUJERES"><g id="boca"><g id="_4" data-name="4"><path d="M454.14,623.76S478.6,598,499.19,597.11s47.49,15.62,47.49,15.62S505.33,688.6,454.14,623.76Z" style="fill:#d6815c"/><path d="M447.54,619.46c3.7,3.47,10.33,3.74,15.05,4.12a210,210,0,0,0,29.72-.08c19.78-1.2,41.88-3.07,60.23-11.09.24-.11.07-.51-.18-.43-18.87,6.34-39,8.77-58.81,10.2a229.94,229.94,0,0,1-28.17.57c-5.21-.26-13.38,0-17.78-3.37,0,0-.1,0-.06.07Z" style="fill:#452210"/></g></g></g></svg>