<svg id="ojos_y_lentes" data-name="ojos y lentes" xmlns="http://www.w3.org/2000/svg" viewBox="0 0 1000 1000"><title>Mesa de trabajo 1</title><path d="M397.75,481.42c10.74-2.15,9.1-17.64,6.22-25.08-1.56-4-4.27-8.9-8.64-10.4-4.65-1.59-10.23,1.77-11.57,6.3C381.05,461.45,383.58,484.25,397.75,481.42Z"/><path d="M602.25,481.42c-10.74-2.15-9.1-17.64-6.22-25.08,1.56-4,4.27-8.9,8.64-10.4,4.65-1.59,10.23,1.77,11.57,6.3C618.95,461.45,616.42,484.25,602.25,481.42Z"/><path d="M324.79,404.74c-9.09-7.4,25.15-19.4,61.11-27.13,60.31-13,99,2.95,69.76,8.36C433.84,390,327.46,406.9,324.79,404.74Z" style="fill:#402515;fill-rule:evenodd"/><path d="M675.21,404.74c9.09-7.4-25.15-19.4-61.11-27.13-60.31-13-99,2.95-69.76,8.36C566.16,390,672.54,406.9,675.21,404.74Z" style="fill:#402515;fill-rule:evenodd"/><path d="M714.6,421.43c0-5.91-1.95-6.9-7.37-6.92l-87.59-.29c-34.94-.11-68.92,5.19-83.7,12.52s-29.06,7.78-35.95,7.75-21.16-.56-35.89-8-48.68-13-83.63-13.07l-87.59-.29c-5.41,0-7.39,1-7.4,6.87s-2.07,31,6.27,38.41S302,470.75,304,477.64s11.59,65.49,82.45,68.18,88.75-51.87,91.74-62.19S494,468.43,499.88,468c5.9.51,18.68,5.48,21.61,15.82s20.45,65,91.33,62.8,80.91-60.75,82.89-67.64,4-11.8,12.37-19.15S714.58,427.33,714.6,421.43ZM464.86,489.5c-11.45,38.34-51.33,47.07-75,47-70.37-2.2-71.61-71.59-71.57-87.83s6-18.69,27.14-21.57,72.35-1.73,99.88,6.24S476.31,451.15,464.86,489.5Zm144.52,47.72c-23.62-.08-63.44-9.07-74.64-47.49s-7.71-48.26,19.87-56,78.76-8.6,99.92-5.58,27,5.51,27,21.75S679.77,535.49,609.38,537.22Z" style="fill:#050505"/></svg>