<svg id="ojos_y_lentes" data-name="ojos y lentes" xmlns="http://www.w3.org/2000/svg" viewBox="0 0 1000 1000"><title>Mesa de trabajo 1</title><path d="M437,411l-3.63-1.74c-2.3-1.06-5.59-2.46-9.51-3.93a111.84,111.84,0,0,0-13.49-4c-2.48-.53-5-1-7.64-1.34a72.79,72.79,0,0,0-7.92-.62l-1.81-.1-2.15.06c-1.44,0-2.9,0-4.06.18a67.89,67.89,0,0,0-7.48.94,69.59,69.59,0,0,0-13.23,3.82A62.57,62.57,0,0,0,353.62,411a19.06,19.06,0,0,1,2.06-3.56,30,30,0,0,1,3-3.69,33.15,33.15,0,0,1,4.6-4.19,44.12,44.12,0,0,1,13.91-7.32,47,47,0,0,1,8.85-2,35.49,35.49,0,0,1,4.45-.41l2.15-.1,2.49.06a57.28,57.28,0,0,1,17.66,3.41,60.3,60.3,0,0,1,7.5,3.36,57.58,57.58,0,0,1,6.18,3.9,47.05,47.05,0,0,1,8,7.25A24.67,24.67,0,0,1,437,411Z" style="fill:#3f2622"/><path d="M563,411a24.65,24.65,0,0,1,2.49-3.26,47.07,47.07,0,0,1,8-7.25,57.52,57.52,0,0,1,6.18-3.9,60.27,60.27,0,0,1,7.5-3.36,57.26,57.26,0,0,1,17.66-3.41l2.49-.06,2.15.1a35.36,35.36,0,0,1,4.45.41,47,47,0,0,1,8.85,2,44.13,44.13,0,0,1,13.91,7.32,33.15,33.15,0,0,1,4.6,4.19,30,30,0,0,1,3,3.69,19,19,0,0,1,2.06,3.56,62.55,62.55,0,0,0-12.46-6.68,69.59,69.59,0,0,0-13.23-3.82,67.91,67.91,0,0,0-7.48-.94c-1.17-.16-2.63-.13-4.06-.18l-2.15-.06-1.81.1a72.5,72.5,0,0,0-7.92.62c-2.61.34-5.16.81-7.64,1.34a111.71,111.71,0,0,0-13.49,4c-3.92,1.47-7.21,2.87-9.51,3.93Z" style="fill:#3f2622"/><path d="M369.58,479.41s9.28.75,25.73,3.34c7.85,1.24,25.65,3,25.65,3s2.21-22.26-15.82-27.74C382.69,451.21,369.58,479.41,369.58,479.41Z" style="fill:#3f2622"/><path d="M630.42,479.41s-9.28.75-25.73,3.34c-7.85,1.24-25.65,3-25.65,3s-2.21-22.26,15.82-27.74C617.31,451.21,630.42,479.41,630.42,479.41Z" style="fill:#3f2622"/><g id="mujer"><g id="_Grupo_" data-name="&lt;Grupo&gt;"><path id="_Trazado_compuesto_" data-name="&lt;Trazado compuesto&gt;" d="M706.21,411.58c-26-1.94-52.06,1.6-77.51,6.77a543.6,543.6,0,0,0-57.54,15c-12.85,4.12-25.38,9.54-38,14.5-7.12,2.8-14,6.35-21.48,8a55.73,55.73,0,0,1-23.37,0c-7.52-1.64-14.37-5.17-21.49-8-12.59-4.94-25.13-10.35-38-14.44a543.57,543.57,0,0,0-57.56-14.92c-25.47-5.14-51.56-8.63-77.52-6.65-22.86,1.74-7.92,21.13,6.41,59.49,9,24.11,30.82,70,96.67,80.14C478.14,564,479.12,483.46,500,483.44s22,80.55,103.3,67.93c65.83-10.22,87.58-56.17,96.55-80.29C714.16,432.7,729.07,413.29,706.21,411.58ZM449.72,530.06c-21.51,19.61-53.76,15.17-78.19,3.38-21.86-10.55-36.67-28.94-44.47-51.76-2.06-6-5.22-15.42-5.84-24.17-.56-7.82.9-15.12,7-19.08,6.9-4.51,16-5.26,24-5.43,17.18-.35,34.47,2.86,51.17,6.56C502.12,461.46,480.74,501.79,449.72,530.06Zm229.11-72.83c-.62,8.76-3.76,18.15-5.81,24.18-7.77,22.83-22.55,41.24-44.39,51.83C604.23,545.07,572,549.56,550.45,530c-31.06-28.23-52.51-68.52,46.18-90.57,16.69-3.73,34-7,51.16-6.64,8,.15,17.14.89,24,5.39C677.9,442.11,679.38,449.41,678.83,457.23Z" style="fill:#22bc9f"/></g></g></svg>