<svg id="ojos_y_cejas_nuevos" data-name="ojos y cejas nuevos" xmlns="http://www.w3.org/2000/svg" viewBox="0 0 1000 1000"><title>Mesa de trabajo 1</title><g id="molesta"><g id="_2" data-name="2"><path d="M397.75,483.42c10.74-2.15,9.1-17.64,6.22-25.08-1.56-4-4.27-8.9-8.64-10.4-4.65-1.59-10.23,1.77-11.57,6.3C381.05,463.45,383.58,486.25,397.75,483.42Z"/><path d="M602.25,483.42c-10.74-2.15-9.1-17.64-6.22-25.08,1.56-4,4.27-8.9,8.64-10.4,4.65-1.59,10.23,1.77,11.57,6.3C618.95,463.45,616.42,486.25,602.25,483.42Z"/></g><path d="M590.4,413.31c-17.38,6.52-47.3,17.37-46,10.46,1.23-6.6,20.38-14,27.81-17.56,15.58-7.41,31.17-15.56,45.41-17,7.15-.74,18.59-.75,10,7-7.7,7-17.32,10.06-26.45,13.15C599.25,410,595.33,411.47,590.4,413.31Z" style="fill:#080909"/><path d="M409.6,413.31c17.38,6.52,47.3,17.37,46,10.46-1.23-6.6-20.38-14-27.81-17.56-15.58-7.41-31.17-15.56-45.41-17-7.15-.74-18.59-.75-10,7,7.7,7,17.32,10.06,26.45,13.15C400.75,410,404.67,411.47,409.6,413.31Z" style="fill:#080909"/></g></svg>