<svg id="ojos_y_cejas_nuevos" data-name="ojos y cejas nuevos" xmlns="http://www.w3.org/2000/svg" viewBox="0 0 1000 1000"><title>Mesa de trabajo 1</title><g id="serio"><g id="_1" data-name="1"><path d="M339.81,409.41c-6-8.72,22.19-15.26,51.17-17.31,48.61-3.45,76.46,18.27,53,19.08C426.51,411.78,341.58,412,339.81,409.41Z" style="fill:#402515;fill-rule:evenodd"/><path d="M660.1,409.88c6.38-8.47-21.57-16.11-50.46-19.29-48.44-5.34-77.12,15.27-53.74,17C573.37,408.87,658.23,412.37,660.1,409.88Z" style="fill:#402515;fill-rule:evenodd"/></g><g id="_2" data-name="2"><path d="M401.68,489.53a19.94,19.94,0,1,0-19.94-19.94A20,20,0,0,0,401.68,489.53Z" style="fill:#402515;fill-rule:evenodd"/><path d="M600.32,489.53a19.94,19.94,0,1,0-19.94-19.94A20,20,0,0,0,600.32,489.53Z" style="fill:#402515;fill-rule:evenodd"/></g></g></svg>