<svg id="ojos_y_cejas_nuevos" data-name="ojos y cejas nuevos" xmlns="http://www.w3.org/2000/svg" viewBox="0 0 1000 1000"><title>Mesa de trabajo 1</title><g id="sorprendida"><g id="_1" data-name="1"><path d="M391.93,486.57A16.54,16.54,0,1,0,375.39,470,16.57,16.57,0,0,0,391.93,486.57Z" style="fill:#9b5638;fill-rule:evenodd"/><path d="M608.07,487.71a16.54,16.54,0,1,0-16.54-16.54A16.57,16.57,0,0,0,608.07,487.71Z" style="fill:#9b5638;fill-rule:evenodd"/></g><g id="_5" data-name="5"><path d="M343.57,429.89c0-33.13,53.59-59,81.38-38.9,7.88,5.71-.5,20.43-.5,20.43s-20.22-13.69-48.56-5.43C358.73,411,343.57,429.89,343.57,429.89Z" style="fill:#4a3013"/><path d="M656.43,429.89c0-33.13-53.59-59-81.38-38.9-7.88,5.71.5,20.43.5,20.43s20.22-13.69,48.56-5.43C641.27,411,656.43,429.89,656.43,429.89Z" style="fill:#4a3013"/></g></g></svg>