<svg id="ojos_y_cejas_nuevos" data-name="ojos y cejas nuevos" xmlns="http://www.w3.org/2000/svg" viewBox="0 0 1000 1000"><title>Mesa de trabajo 1</title><g id="triste"><path d="M599.28,392.89c18.42,2.35,49.94,6.72,45.58,12.24-4.16,5.26-24.56,2.88-32.79,2.54-17.23-.72-34.83-.8-48.1-6.14-6.66-2.69-16.79-8-5.61-10.85,10.05-2.55,20-.81,29.53.72C589.89,391.72,594.05,392.22,599.28,392.89Z" style="fill:#080909"/><path d="M400.72,392.89c-18.42,2.35-49.94,6.72-45.58,12.24,4.16,5.26,24.56,2.88,32.79,2.54,17.23-.72,34.83-.8,48.1-6.14,6.66-2.69,16.79-8,5.61-10.85-10.05-2.55-20-.81-29.53.72C410.11,391.72,405.95,392.22,400.72,392.89Z" style="fill:#080909"/><path d="M400.68,481.53a19.94,19.94,0,1,0-19.94-19.94A20,20,0,0,0,400.68,481.53Z" style="fill:#080909;fill-rule:evenodd"/><path d="M599.32,481.53a19.94,19.94,0,1,0-19.94-19.94A20,20,0,0,0,599.32,481.53Z" style="fill:#080909;fill-rule:evenodd"/></g></svg>