<svg xmlns="http://www.w3.org/2000/svg" viewBox="0 0 1000 1000"><title>Mesa de trabajo 1</title><g style="isolation:isolate"><g id="ojos_y_lentes" data-name="ojos y lentes"><path d="M559.9,399.54c-9.87,6,6.53-33.19,55-34.74,56.54-1.81,73.74,38,51.46,26.6C618.34,366.71,575.55,390,559.9,399.54Z" style="fill:#050606;fill-rule:evenodd"/><path d="M440.1,399.54c9.87,6-6.53-33.19-55-34.74-56.54-1.81-73.74,38-51.46,26.6C381.66,366.71,424.45,390,440.1,399.54Z" style="fill:#050606;fill-rule:evenodd"/><path d="M719.71,413.06c0-6-2-7.06-7.56-7.06H622.46c-35.78,0-70.55,5.55-85.67,13.11S507,427.18,500,427.17s-21.67-.5-36.78-8.05S413.32,406,377.53,406H287.83c-5.54,0-7.55,1-7.55,7.06s-2,31.76,6.55,39.31S297.41,465,299.43,472s12.09,67,84.66,69.56,90.7-53.43,93.73-64,16.13-15.63,22.17-16.13c6.05.5,19.15,5.54,22.18,16.13s21.17,66.52,93.73,64,82.64-62.49,84.66-69.56,4-12.09,12.6-19.65S719.73,419.11,719.71,413.06Zm-255.5,70.56C452.62,522.93,411.8,532,387.62,532,315.55,530,314,458.92,314,442.3s6.05-19.15,27.72-22.18,74.08-2,102.3,6.05S475.81,444.32,464.21,483.62ZM612.38,532c-24.2,0-65-9.08-76.6-48.38s-8.07-49.38,20.17-57.45,80.62-9.08,102.29-6.05S686,425.67,686,442.3,684.43,530,612.38,532Z"/><path d="M464.21,483.62C452.62,522.93,411.8,532,387.62,532,315.55,530,314,458.92,314,442.3s6.05-19.15,27.72-22.18,74.08-2,102.3,6.05S475.81,444.32,464.21,483.62Z" style="fill:#101b23;mix-blend-mode:multiply"/><path d="M612.38,532c-24.2,0-65-9.08-76.6-48.38s-8.07-49.38,20.17-57.45,80.62-9.08,102.29-6.05S686,425.67,686,442.3,684.43,530,612.38,532Z" style="fill:#101b23;mix-blend-mode:multiply"/><path d="M422.36,435.23c19.08,3.09,33.86,9.82,34.6,5.25s-14.13-10.78-33.21-13.86-35.15-1.87-35.88,2.7S403.28,432.16,422.36,435.23Z" style="fill:#fff"/><path d="M644.39,435.23c19.09,3.09,33.87,9.82,34.6,5.25s-14.13-10.78-33.22-13.86-35.14-1.87-35.88,2.7S625.31,432.16,644.39,435.23Z" style="fill:#fff"/></g></g></svg>