<svg id="ojos_y_lentes" data-name="ojos y lentes" xmlns="http://www.w3.org/2000/svg" viewBox="0 0 1000 1000"><title>Mesa de trabajo 1</title><path d="M552.44,411.43c-10.52,4.36,7-24.14,58.66-25.26,60.26-1.31,78.6,27.67,54.85,19.34C614.73,387.56,569.12,404.52,552.44,411.43Z" style="fill:#402515;fill-rule:evenodd"/><path d="M447.56,411.43c10.51,4.36-7-24.14-58.66-25.26-60.26-1.31-78.59,27.67-54.85,19.34C385.27,387.56,430.88,404.52,447.56,411.43Z" style="fill:#402515;fill-rule:evenodd"/><path id="_Trazado_compuesto_" data-name="&lt;Trazado compuesto&gt;" d="M449.39,423.86c-18.5-7-37.81-9.25-60.75-9.4-3.65.23-10.62.49-17.55,1.16-19.49,1.89-62.09,7.16-78.63,16.57A3.72,3.72,0,0,0,291,435c0,5.16.08,10.33.42,15.48.25,3.85,2,6.72,6,8.15A21.67,21.67,0,0,1,311.22,473c2.66,8.1,5.23,16.22,8,24.28,4.2,12.27,10,23.73,18.63,33.5,11.38,12.87,26.26,18.93,42.92,21.06a100.12,100.12,0,0,0,44.66-4.41,56.75,56.75,0,0,0,23.8-15.08,81.09,81.09,0,0,0,14.26-21.57A178.32,178.32,0,0,0,476.8,471.5c.78-3.69.6-6.5-2-9.62-4.06-4.91-1.56-12,4.58-13.72a81.18,81.18,0,0,1,41.18,0c6.14,1.71,8.64,8.8,4.58,13.72-2.57,3.12-2.75,5.93-2,9.62a178.32,178.32,0,0,0,13.33,39.24,81.08,81.08,0,0,0,14.25,21.57,56.75,56.75,0,0,0,23.8,15.08,100.12,100.12,0,0,0,44.66,4.41c16.66-2.13,31.54-8.19,42.92-21.06,8.64-9.77,14.42-21.23,18.63-33.5,2.76-8.06,5.33-16.19,8-24.28a21.67,21.67,0,0,1,13.81-14.33c4-1.43,5.71-4.31,6-8.15.33-5.15.42-10.32.42-15.48a3.72,3.72,0,0,0-1.43-2.8c-16.55-9.4-59.14-14.68-78.63-16.57-6.93-.67-13.9-.93-17.55-1.16-22.95.14-42.26,2.43-60.75,9.4-5.43,2-10.66,4.66-15.92,7.13a9.79,9.79,0,0,1-9.17-.19,14.81,14.81,0,0,0-6.35-1.6q-19.16,0-38.34,0a14.81,14.81,0,0,0-6.35,1.6,9.79,9.79,0,0,1-9.17.19c-5.27-2.47-10.49-5.08-15.92-7.13Zm227.33,41.7h0A120.56,120.56,0,0,1,673.16,494c-4.92,21.19-22.36,43.66-44.26,48.81-18,4.24-29.06,3.86-47.36-1-15.26-4.08-26.91-12.62-33.73-27.07-7.85-16.64-12.12-34.1-10.94-52.61.7-11,5.26-20.12,14.43-26.47,7-4.84,15.07-7.14,23.34-8.64A181.48,181.48,0,0,1,629,425.51c8.46,1,16.85,2.52,24.79,5.85q22.71,9.5,22.95,34.19Zm-353.45,0h0q.22-24.72,22.95-34.19c7.95-3.33,16.34-4.83,24.79-5.85A181.48,181.48,0,0,1,425.36,427c8.27,1.5,16.35,3.8,23.34,8.64,9.17,6.35,13.73,15.5,14.43,26.47,1.18,18.51-3.09,36-10.94,52.61-6.82,14.45-18.46,23-33.73,27.07-18.3,4.89-29.33,5.27-47.36,1-21.9-5.15-39.34-27.63-44.26-48.81A120.57,120.57,0,0,1,323.27,465.55Z" style="fill:#e04646;fill-rule:evenodd"/><path d="M371,425.38c-8.46,1-16.85,2.52-24.79,5.85q-22.71,9.5-22.95,34.19a105.56,105.56,0,0,0,1.44,17.81l58.95-58.95Q377.34,424.63,371,425.38Z" style="fill:#261a1b"/><path d="M463.12,462c-.7-11-5.26-20.12-14.43-26.47-6.6-4.57-14.17-6.88-21.95-8.38L337,516.91c8.24,12.38,20.28,22.54,34.11,25.79,18,4.24,29.06,3.86,47.36-1,15.26-4.08,26.91-12.61,33.73-27.07C460,498,464.3,480.5,463.12,462Z" style="fill:#261a1b"/><path d="M425.36,426.88a179.58,179.58,0,0,0-41.69-2.59l-58.95,58.95c.57,3.56,1.3,7.11,2.12,10.65a71.37,71.37,0,0,0,10.15,23l89.77-89.77Z" style="fill:#493235"/><path d="M574.64,427.07c-8.27,1.5-16.35,3.8-23.34,8.64-9.17,6.35-13.73,15.5-14.43,26.47a96.08,96.08,0,0,0,.64,18.65l56.15-56.15A177.84,177.84,0,0,0,574.64,427.07Z" style="fill:#261a1b"/><path d="M653.78,431.43A75.48,75.48,0,0,0,638.62,427l-89.78,89.78c6.93,13.23,18.17,21.16,32.71,25,18.3,4.89,29.33,5.27,47.36,1,21.9-5.15,39.34-27.63,44.26-48.81a120.56,120.56,0,0,0,3.56-28.46Q676.5,440.9,653.78,431.43Z" style="fill:#261a1b"/><path d="M629,425.58a184.47,184.47,0,0,0-35.31-.9l-56.15,56.15a114.26,114.26,0,0,0,10.3,34c.33.69.67,1.35,1,2L638.62,427C635.43,426.43,632.21,426,629,425.58Z" style="fill:#493235"/></svg>