<svg xmlns="http://www.w3.org/2000/svg" viewBox="0 0 1000 1000"><title>Mesa de trabajo 1</title><g id="cabello_hombre" data-name="cabello hombre"><path id="_5" data-name="5" d="M688.91,121c-21.85-10.23-136-20.21-189.91-19.16h0c-53.9-1.05-168.06,8.93-189.91,19.16-47.52,22.25-39.7,162.53-33.19,232.6.58,10.72,1.31,22.31,2.13,35,.65,9.93,1.91,19.89,3.44,29.73A175,175,0,0,0,285.12,438c3.81,14,9.09,4,8.92-4.7-.24-13.3-1.27-26.48-.56-39.79,2.6-49.23,3.29-138.26,50.82-138.26,35.2,0,96.83,19.76,153.57,22.41,53.38-3.09,120.26-24.85,155.68-24.85,37.95,0,47.36,46.38,48.1,110.7.14,13.26,1.16,26.52,2,39.74.49,7.77,1.11,15.52,1.55,23.28.17,3.16,1.07,11.59,5.57,10.8,5-.89,5.63-18,6.14-21.59a479.38,479.38,0,0,0,4.17-51.33C727.6,299.19,739,144.49,688.91,121Z" style="fill:#674019;fill-rule:evenodd"/></g></svg>