<svg xmlns="http://www.w3.org/2000/svg" viewBox="0 0 1000 1000"><title>11Mesa de trabajo 1</title><g id="cabello_mujer_frente" data-name="cabello mujer frente"><g id="_1" data-name="1"><path d="M528.34,25.47c-57.39-9.09-134,7.24-156.33,44-21.24,34.93-4.25,74.74,54.19,85.17l167.71-2.11C643.52,106.61,624.34,40.68,528.34,25.47Z" style="fill:#632d0f"/><path d="M589.3,156.58c2.1-.92,3.63-2.65,5.47-4.07h-.87C592.43,153.89,590.9,155.25,589.3,156.58Z" style="fill:#632d0f"/><path d="M287.75,429.88s21.37-2,29.63-104.56c12.1-150.06,102.06-47.44,187.62-46.47,83.38.95,164.59-105.53,183.22,48.4,10.69,88.36,27.39,80.66,27.39,80.66S794.66,123.83,499.51,122C186.84,120.07,287.75,429.88,287.75,429.88Z" style="fill:#452210"/><path d="M308.19,357.22S547.57,384,702.66,345.33c0,0,39.34-191.67-199.48-194S308.19,357.22,308.19,357.22Z" style="fill:#632d0f"/></g></g></svg>