<svg xmlns="http://www.w3.org/2000/svg" viewBox="0 0 1000 1000"><title>Mesa de trabajo 1</title><g id="cabello_hombre" data-name="cabello hombre"><path d="M740.79,241.47c-1.77-15.91-4.07-47.32-18.1-61.78s-37.13-28.08-56.13-38.51S629.19,118.83,622.38,116s-25.94-8.27-50.14-15.75C550.88,93.67,515.92,81,489,81c-21.49,0-69.12,8.3-84.21,15.76s-35.31,20.35-48,27S297,169.54,289.2,181.57s-30.13,66.85-31.34,74.88-4.22,29.69-5.13,41.45S264.5,360,267.82,367.17s3.92,22.47,7.85,25.95,1.75,20.86,5.68,34c1.79,6,6.86,19.43,11.5,30.92,0,0,6.25-3.82,6.25-5.26,0-26.48-2-66,3.82-78.21,7.55-15.78,17-21.53,21.86-31.41s7.26-24.89,9.06-31.3,59.45-43.34,67.3-45.74,33.42-.2,44.37-1.88c13.3-2,38.7-12.84,52.19-12.32,9.49.39,21.27,8.84,36.68,8.84s41.64-6,49.79-5.62,40.29,4.83,69.7,13.24,43.46,48.14,42.1,58.18,3.91,32.59,9.8,49.05c4,11.27,3.94,48.2,3.94,66.28,0,.44,1.88,5.26,1.88,5.26,7.91-33.46,31.09-91.41,35.09-123C749.28,303.55,743.1,262.08,740.79,241.47Z" style="fill:#5e3c1e"/></g></svg>