<svg xmlns="http://www.w3.org/2000/svg" viewBox="0 0 1000 1000"><title>Mesa de trabajo 1</title><g id="cabello_hombre" data-name="cabello hombre"><g id="_1" data-name="1"><path d="M713.69,230.92l29.54,10.92s3.13-55.35-46.32-76.66l16.78-11.28s-36-36.35-101.19-23.81l15.91-17.55s-64.83-31.33-128.58,8.77c-63.76-40.11-128.58-8.77-128.58-8.77l15.91,17.55C322,117.56,286,153.91,286,153.91l16.78,11.28c-49.45,21.31-46.32,76.66-46.32,76.66L286,230.92c-36.56,24.38-35.14,95.94-35.14,95.94l19.78-25.78C252.08,346.73,286,435.9,286,435.9l34.09-102.5c-4.94,19.07,21,32.32,21,32.32C338.61,329.37,381,310.57,381,310.57c-2.15,21.31,17,28.83,17,28.83,10.38-66.41,101.89-26.32,101.89-26.32s91.51-40.1,101.89,26.32c0,0,19.14-7.52,17-28.83,0,0,42.35,18.8,39.88,55.15,0,0,26-13.25,21-32.32l34.09,102.5s33.9-89.16,15.36-134.82l19.78,25.78S750.25,255.3,713.69,230.92Z" style="fill:#3b2314"/></g></g></svg>