<svg xmlns="http://www.w3.org/2000/svg" viewBox="0 0 1000 1000"><title>Mesa de trabajo 1</title><g id="cabello_hombre" data-name="cabello hombre"><g id="_3" data-name="3"><path d="M326,307.27s.13-.13.26-.37Z" style="fill:#402515;fill-rule:evenodd"/><path d="M683,210.21c-2.36-20.61-13.59-45.56-13.59-45.56S666,174.86,664.33,179s-4.66-7.56-18.21-24.2S597.83,111,597.83,111s-8.47,15.5-10.59,19.66-3.39-4.92-12.71-20-37.7-45-36-48.79-10.16,18.15-28.8,34.79-34.31,17-40.24,20.42,2.12-10.21,3.81-14-4.24,3.78-16.94,11-42.35,19.68-48.28,25,8.47-15.51,8.47-15.51-25.41,6.05-47,24.58c-16.69,14.32-44,44.88-57.1,68.85a127.13,127.13,0,0,0-21,34.1c-18.2,45.17-17.74,80.47-11.74,169.92.65,9.71,1.93,19.42,3.44,29a169.7,169.7,0,0,0,3.67,19.23c9.43,34,10.35-121.08,39.19-161.9-.77.14,8.56-28.91,28.13-42.32C388.26,278,481.58,300.19,498.72,300c36.31-.31,126.93-19.65,157.66-26.44,31.83,59.34,54.18,195.23,56.11,194.89,5-.87,5.63-17.53,6.13-21.09,3.62-25.05,4.59-50.75,4.57-76C723.14,332.74,733.58,264.3,683,210.21Z" style="fill:#402515;fill-rule:evenodd"/></g></g></svg>