<svg xmlns="http://www.w3.org/2000/svg" viewBox="0 0 1000 1000"><title>Mesa de trabajo 1</title><g id="cabello_mujer_frente" data-name="cabello mujer frente"><g id="_4" data-name="4"><path d="M304.17,409.56c2.51-15.71,8-31.74,13.55-45.79,8.85-22.51,14.92-34.2,25.27-55.69,12.78-26.53,30.62-64.16,40.67-109.72,14.76,27.42,25.75,42.48,41.93,60.42,34.9,38.67,83.49,52.61,130.46,49.32-3.72-5.35-19.14-44.28-23-49.32,3.58,18.69,42.4,43.38,49.32,49.31,25.52,21.91,56.7,30.84,85,46.38,42,23,31.71,86,35.45,133.84,20.29-27.21,25-72.58,26-107.85A431,431,0,0,0,715.91,263c-15.59-62-64.19-125-113.71-149.82-38.51-18-101.95-17.32-141.38-11.68-28.43,3.38-126.89,56.35-140.65,80,0,0-39.85,69.09-48.55,135.91-3.7,28.43,10.11,137.55,17.87,171.33,0,0,4.59,20.14,7.34,6.45,4.9-24.37,4.38-51,6.19-75.92C303.25,416.09,303.64,412.83,304.17,409.56Z"/></g></g></svg>