<svg xmlns="http://www.w3.org/2000/svg" viewBox="0 0 1000 1000"><title>Mesa de trabajo 1</title><g id="cabello_mujer_frente" data-name="cabello mujer frente"><path id="_5" data-name="5" d="M730.94,322.46C726.83,292,711,250.61,699.39,223c-20.54-48.73-58.66-107.67-108.56-120-339.3-84-322.1,262.72-322.1,262.72,1.36,30.18,54,23.36,56.18-10.55,42.31,33.27,51.69-17.05,54.85-54.2,14.74,36.22,39.6-4,40.8-33.46C434.9,297,466.33,281,482.14,261c-1.78,19.81-10.71,53.46,3.74,69.07,16.85,18.2,38.74.37,43-13.58-11.45,55,53,69.19,63.89,14.41C585.22,365.38,643.2,396,642,354c2.1,29.51,52.85,44.76,47.39,3.71C711.51,398,735.08,353.13,730.94,322.46Z" style="fill:#050606"/></g></svg>