<svg xmlns="http://www.w3.org/2000/svg" width="81.438" height="57" viewBox="0 0 81.438 57"><path d="M77.693,71.449a14.929,14.929,0,0,0,0-5.421l3.283-1.9a.921.921,0,0,0,.42-1.082,19.1,19.1,0,0,0-4.225-7.3.928.928,0,0,0-1.145-.178l-3.283,1.9a14.941,14.941,0,0,0-4.7-2.711V50.96a.927.927,0,0,0-.725-.9,19.2,19.2,0,0,0-8.425,0,.927.927,0,0,0-.725.9v3.792a14.941,14.941,0,0,0-4.7,2.711l-3.283-1.9a.931.931,0,0,0-1.145.178,19.1,19.1,0,0,0-4.225,7.3.937.937,0,0,0,.42,1.082l3.283,1.9a14.928,14.928,0,0,0,0,5.421l-3.283,1.9a.921.921,0,0,0-.42,1.082,19.193,19.193,0,0,0,4.225,7.3.928.928,0,0,0,1.145.178l3.283-1.9a14.941,14.941,0,0,0,4.7,2.711v3.792a.927.927,0,0,0,.725.9,19.2,19.2,0,0,0,8.425,0,.927.927,0,0,0,.725-.9V82.724a14.941,14.941,0,0,0,4.7-2.711l3.283,1.9a.931.931,0,0,0,1.145-.178,19.1,19.1,0,0,0,4.225-7.3.937.937,0,0,0-.42-1.082ZM63.121,74.91a6.172,6.172,0,1,1,6.172-6.172A6.178,6.178,0,0,1,63.121,74.91Zm-50.9-18.389a8.145,8.145,0,1,0-8.145-8.145A8.152,8.152,0,0,0,12.217,56.521Zm28.506,4.072c.242,0,.471-.064.713-.076a23.46,23.46,0,0,1,4.62-7.534,5.016,5.016,0,0,1,3.678-1.6,4.892,4.892,0,0,1,2.494.674l1.005.585c.1-.064.2-.115.305-.178a14.086,14.086,0,0,0,1.425-6.109,14.247,14.247,0,1,0-14.24,14.24ZM54.111,85.346c-.293-.153-.585-.331-.865-.5a6.287,6.287,0,0,1-3.5,1.247,5.058,5.058,0,0,1-3.678-1.6,23.205,23.205,0,0,1-5.116-8.857c-1.362-4.39,3.169-6.325,3.283-6.4q-.019-.5,0-.993l-1.005-.585a5.184,5.184,0,0,1-1.247-1.031c-.42.025-.827.076-1.247.076a20.089,20.089,0,0,1-8.717-2.036H30.962a14.667,14.667,0,0,0-14.673,14.66v3.665A6.11,6.11,0,0,0,22.4,89.1H54.9a4.9,4.9,0,0,1-.789-2.583V85.346ZM22.029,62.961a8.121,8.121,0,0,0-5.739-2.367H8.145A8.152,8.152,0,0,0,0,68.738v4.072a4.068,4.068,0,0,0,4.072,4.072h8.386A18.662,18.662,0,0,1,22.029,62.961Z" transform="translate(0 -32.1)"/></svg>