<svg xmlns="http://www.w3.org/2000/svg" width="71.242" height="57" viewBox="0 0 71.242 57"><path d="M64.889,26.719l5.077-5.077a1.794,1.794,0,0,0,0-2.538l-2.538-2.538a1.794,1.794,0,0,0-2.538,0l-5.077,5.077-5.077-5.077a1.794,1.794,0,0,0-2.538,0L49.659,19.1a1.794,1.794,0,0,0,0,2.538l5.077,5.077L49.659,31.8a1.794,1.794,0,0,0,0,2.538L52.2,36.872a1.794,1.794,0,0,0,2.538,0L59.813,31.8l5.077,5.077a1.794,1.794,0,0,0,2.538,0l2.538-2.538a1.794,1.794,0,0,0,0-2.538ZM24.188,28.5A14.25,14.25,0,1,0,9.938,14.25,14.249,14.249,0,0,0,24.188,28.5Zm9.975,3.563H32.3a19.379,19.379,0,0,1-16.232,0H14.212A14.966,14.966,0,0,0-.75,47.025v4.631A5.345,5.345,0,0,0,4.594,57H43.781a5.345,5.345,0,0,0,5.344-5.344V47.025A14.966,14.966,0,0,0,34.163,32.063Z" transform="translate(0.75)"/></svg>