<svg xmlns="http://www.w3.org/2000/svg" width="72.73" height="58" viewBox="0 0 72.73 58"><path d="M25.456,29A14.5,14.5,0,1,0,10.91,14.5,14.523,14.523,0,0,0,25.456,29Zm10.91,7.25a7.127,7.127,0,0,1,.92-3.455,15.6,15.6,0,0,0-1.648-.17h-1.9a19.84,19.84,0,0,1-16.569,0h-1.9A15.253,15.253,0,0,0,0,47.85v4.713A5.446,5.446,0,0,0,5.455,58H37.377a7.181,7.181,0,0,1-1.011-3.625Zm32.729-3.625H65.457V23.563a9.091,9.091,0,0,0-18.183,0v9.063H43.638A3.631,3.631,0,0,0,40,36.25V54.375A3.631,3.631,0,0,0,43.638,58H69.094a3.631,3.631,0,0,0,3.637-3.625V36.25A3.631,3.631,0,0,0,69.094,32.625ZM56.366,48.938A3.625,3.625,0,1,1,60,45.313,3.631,3.631,0,0,1,56.366,48.938ZM60,32.625H52.73V23.563a3.637,3.637,0,0,1,7.273,0Z"/></svg>