<svg xmlns="http://www.w3.org/2000/svg" width="271.055" height="110.527" viewBox="0 0 271.055 110.527"><defs><style>.a{fill:#767676;}</style></defs><g transform="translate(-847.5 -400)"><g transform="translate(847.5 405.514)"><path class="a" d="M1023.818,506.4H872.183A24.712,24.712,0,0,1,847.5,481.719V427.826a24.711,24.711,0,0,1,24.683-24.683h150.637a24.711,24.711,0,0,1,24.683,24.683,5.263,5.263,0,1,1-10.526,0,14.173,14.173,0,0,0-14.156-14.156H872.183a14.173,14.173,0,0,0-14.156,14.156v53.893a14.173,14.173,0,0,0,14.156,14.156h151.635a5.263,5.263,0,1,1,0,10.526Z" transform="translate(-847.5 -403.143)"/></g><g transform="translate(870.919 442.995)"><path class="a" d="M884.116,455.472a4.377,4.377,0,0,1-3.119-1.3l-4.093-4.139-4.093,4.139a4.385,4.385,0,0,1-7.014-5.1l2.67-5.17-5.2-2.616a4.385,4.385,0,0,1,2.679-8.246l5.742.942.877-5.753a4.387,4.387,0,0,1,8.674,0l.877,5.753,5.742-.942a4.385,4.385,0,0,1,2.679,8.246l-5.2,2.616,2.67,5.17a4.384,4.384,0,0,1-3.895,6.4Z" transform="translate(-860.849 -424.507)"/></g><g transform="translate(909.517 442.995)"><path class="a" d="M906.116,455.472a4.377,4.377,0,0,1-3.119-1.3l-4.093-4.139-4.093,4.139a4.385,4.385,0,0,1-7.014-5.1l2.67-5.17-5.2-2.616a4.385,4.385,0,0,1,2.679-8.246l5.742.942.877-5.753a4.387,4.387,0,0,1,8.674,0l.877,5.753,5.742-.942a4.385,4.385,0,0,1,2.679,8.246l-5.2,2.616,2.67,5.17a4.384,4.384,0,0,1-3.895,6.4Z" transform="translate(-882.849 -424.507)"/></g><g transform="translate(948.113 442.995)"><path class="a" d="M928.116,455.472a4.378,4.378,0,0,1-3.119-1.3l-4.093-4.139-4.093,4.139a4.385,4.385,0,0,1-7.014-5.1l2.67-5.17-5.2-2.616a4.385,4.385,0,0,1,2.679-8.246l5.742.942.877-5.753a4.387,4.387,0,0,1,8.674,0l.877,5.753,5.742-.942a4.385,4.385,0,0,1,2.679,8.246l-5.2,2.616,2.67,5.17a4.384,4.384,0,0,1-3.895,6.4Z" transform="translate(-904.849 -424.507)"/></g><g transform="translate(986.71 442.995)"><path class="a" d="M950.116,455.472a4.378,4.378,0,0,1-3.119-1.3l-4.093-4.139-4.093,4.139a4.385,4.385,0,0,1-7.014-5.1l2.67-5.17-5.2-2.616a4.385,4.385,0,0,1,2.679-8.246l5.742.942.877-5.753a4.387,4.387,0,0,1,8.674,0l.877,5.753,5.742-.942a4.385,4.385,0,0,1,2.679,8.246l-5.2,2.616,2.67,5.17a4.384,4.384,0,0,1-3.895,6.4Z" transform="translate(-926.849 -424.507)"/></g><g transform="translate(1032.589 400)"><g transform="translate(0 43.86)"><path class="a" d="M1027.13,491.667h-62.3A11.848,11.848,0,0,1,953,479.832v-43A11.848,11.848,0,0,1,964.835,425h62.3a11.848,11.848,0,0,1,11.835,11.835v43A11.848,11.848,0,0,1,1027.13,491.667Zm-62.3-59.65a4.821,4.821,0,0,0-4.818,4.818v43a4.821,4.821,0,0,0,4.818,4.818h62.3a4.821,4.821,0,0,0,4.818-4.818v-43a4.821,4.821,0,0,0-4.818-4.818Z" transform="translate(-953 -425)"/></g><g transform="translate(36.842 68.422)"><circle class="a" cx="6.14" cy="6.14" r="6.14"/><g transform="translate(3.509 8.772)"><path class="a" d="M0,0H5.263a0,0,0,0,1,0,0V10.781a1.5,1.5,0,0,1-1.5,1.5H1.5a1.5,1.5,0,0,1-1.5-1.5V0A0,0,0,0,1,0,0Z"/></g></g><g transform="translate(17.544)"><path class="a" d="M1013.878,450.878H963V425.439a25.439,25.439,0,1,1,50.878,0Zm-43.86-7.018h36.842V425.439a18.421,18.421,0,1,0-36.842,0Z" transform="translate(-963 -400)"/></g></g></g></svg>