<?xml version="1.0" encoding="UTF-8" standalone="no"?>
<!DOCTYPE svg PUBLIC "-//W3C//DTD SVG 1.1//EN" "http://www.w3.org/Graphics/SVG/1.1/DTD/svg11.dtd">
<svg width="100%" height="100%" viewBox="0 0 135 135" version="1.1" xmlns="http://www.w3.org/2000/svg" xmlns:xlink="http://www.w3.org/1999/xlink" xml:space="preserve" xmlns:serif="http://www.serif.com/" style="fill-rule:evenodd;clip-rule:evenodd;stroke-miterlimit:10;">
    <rect id="password-issue" x="0" y="0" width="133.785" height="133.732" style="fill:none;"/>
    <path d="M54.596,58.841l0,-4.44c0.085,-7.021 5.885,-12.752 12.907,-12.752c6.137,0 11.467,4.377 12.661,10.397c0.171,0.869 0.254,1.754 0.247,2.64l0,4.17l0.945,0.083c1.098,0.115 2.161,0.449 3.128,0.982c0.884,0.477 1.676,1.106 2.34,1.86c1.07,1.166 1.785,2.612 2.062,4.17c0.092,0.545 0.14,1.097 0.143,1.65c0,5.725 0,11.45 0,17.175c0.001,1.915 -0.665,3.772 -1.883,5.25c-1.214,1.55 -2.935,2.626 -4.86,3.038c-0.551,0.128 -1.114,0.196 -1.68,0.202c-8.715,0 -17.432,0 -26.152,0c-1.883,-0.007 -3.707,-0.659 -5.168,-1.845c-1.158,-0.904 -2.062,-2.093 -2.625,-3.45c-0.341,-0.79 -0.549,-1.632 -0.615,-2.49l0,-17.94c-0.021,-3.796 2.463,-7.182 6.09,-8.302c0.393,-0.118 0.794,-0.209 1.2,-0.27c0.405,-0.06 0.818,-0.083 1.26,-0.128Zm21.503,0l0,-0.202c0,-1.335 0,-2.67 0,-4.013c-0.004,-0.565 -0.052,-1.129 -0.143,-1.687c-0.295,-1.838 -1.211,-3.519 -2.595,-4.763c-1.502,-1.364 -3.446,-2.144 -5.475,-2.197c-0.997,-0.053 -1.996,0.064 -2.955,0.345c-1.299,0.368 -2.488,1.048 -3.465,1.98c-1.585,1.532 -2.511,3.624 -2.58,5.827l0,4.718l17.213,-0.008Zm-6.458,21.51c0,-0.75 0,-1.5 0,-2.287c-0.027,-0.156 0.077,-0.308 0.233,-0.338c2.438,-0.931 4.058,-3.283 4.058,-5.893c0,-1.999 -0.951,-3.884 -2.558,-5.072c-1.509,-1.107 -3.425,-1.507 -5.25,-1.095c-1.596,0.301 -3.007,1.225 -3.923,2.565c-0.571,0.819 -0.939,1.763 -1.072,2.753c-0.045,0.315 -0.06,0.645 -0.083,0.975l4.298,0l0,-0.135c0.021,-0.378 0.132,-0.746 0.322,-1.073c0.698,-0.964 2.036,-1.234 3.053,-0.615c0.564,0.358 0.913,0.975 0.93,1.643c0.066,0.908 -0.472,1.76 -1.32,2.092c-0.55,0.183 -1.06,0.471 -1.5,0.848c-0.863,0.72 -1.383,1.772 -1.433,2.895c-0.052,0.87 0,1.74 0,2.61c-0.003,0.045 -0.003,0.09 0,0.135l4.245,-0.008Zm-4.275,2.168l0,4.282l4.26,0l0,-4.237l-4.26,-0.045Z" style="fill:#585857;fill-rule:nonzero;"/>
    <circle cx="67.526" cy="67.474" r="44.16" style="fill:none;stroke:#3d3d3b;stroke-width:2.25px;"/>
    <path d="M122.479,73.811c0,26.67 -21.946,48.615 -48.615,48.615" style="fill:none;stroke:#3d3d3b;stroke-width:2.25px;"/>
    <path d="M11.306,59.921c0,-26.669 21.946,-48.615 48.615,-48.615" style="fill:none;stroke:#3d3d3b;stroke-width:2.25px;"/>
</svg>
