<svg id="u._no" data-name="u. no" xmlns="http://www.w3.org/2000/svg" width="70" height="70" viewBox="0 0 70 70">
  <path id="Trazado_378" data-name="Trazado 378" d="M0,0H70V70H0Z" fill="none"/>
  <path id="fi-rr-user-delete" d="M34.284,48.4a2.017,2.017,0,0,1-2.017-2.017,14.117,14.117,0,1,0-28.234,0,2.017,2.017,0,0,1-4.033,0,18.151,18.151,0,1,1,36.3,0A2.017,2.017,0,0,1,34.284,48.4Zm12.1-22.184h-12.1a2.017,2.017,0,1,1,0-4.033h12.1a2.017,2.017,0,1,1,0,4.033ZM18.151,24.2a12.1,12.1,0,1,1,12.1-12.1A12.1,12.1,0,0,1,18.151,24.2Zm0-20.167A8.067,8.067,0,1,0,26.217,12.1,8.067,8.067,0,0,0,18.151,4.033Z" transform="translate(10.799 10.799)" fill="#707070"/>
</svg>
