<svg id="u._error2" data-name="u. error2" xmlns="http://www.w3.org/2000/svg" width="70" height="70" viewBox="0 0 70 70">
  <path id="Trazado_378" data-name="Trazado 378" d="M0,0H70V70H0Z" fill="none"/>
  <path id="fi-rr-user-remove" d="M18,24A12,12,0,1,0,6,12,12,12,0,0,0,18,24ZM18,4a8,8,0,1,1-8,8A8,8,0,0,1,18,4ZM36,46a2,2,0,1,1-4,0A14,14,0,1,0,4,46a2,2,0,0,1-4,0,18,18,0,0,1,36,0Z" transform="translate(11 11)" fill="#707070"/>
  <path id="fi-rr-shield-exclamation" d="M13.693,17.54a1.169,1.169,0,0,1-1.169-1.169V7.016a1.169,1.169,0,0,1,2.339,0v9.355A1.169,1.169,0,0,1,13.693,17.54Zm.927,10.243c2.526-1.015,10.766-5.006,10.766-13.7V8.036a5.838,5.838,0,0,0-4.006-5.55L14.062.06a1.152,1.152,0,0,0-.737,0L6.006,2.486A5.838,5.838,0,0,0,2,8.036v6.047C2,21.755,10.191,26.449,12.7,27.7a5.412,5.412,0,0,0,.99.359,5.262,5.262,0,0,0,.927-.281ZM20.644,4.705a3.508,3.508,0,0,1,2.4,3.33v6.047c0,7.23-7.118,10.654-9.3,11.531-2.208-1.1-9.41-5.2-9.41-11.531V8.036a3.508,3.508,0,0,1,2.4-3.33l6.95-2.3Zm-6.95,15.173a1.169,1.169,0,1,0,1.169,1.169A1.169,1.169,0,0,0,13.693,19.879Z" transform="translate(42.17 19.001)" fill="#707070"/>
</svg>
