<svg id="cabello_fondo" data-name="cabello fondo" xmlns="http://www.w3.org/2000/svg" viewBox="0 0 1000 1000"><title>Mesa de trabajo 1</title><path id="_5" data-name="5" d="M865.6,459.11c41.21-16.12-14.21-67.57-27.21-81.54,44.12-6.35-5.74-63.07-30.54-65.82,38.9-22.81,26.36-86.94-23.76-81.35,16.74-7.75,30.12-34.87,17.68-53.6-12.88-19.39-47.7-14.24-67.58-10.72,13.29-45-3.91-69-50.9-56.93,13.09-46.28-16.82-49.4-48.26-34.61,10.24-48.59-48.73-13.85-54.79,13,5.34-44.23-38-29.11-53.62-6,1-41.41-43.26-42.15-60.92-13.65-10.25-48-56.47-16-59.31,17.06C385.28,45,328.78,70.37,321.56,108.57c-31.69-30.66-66.6,8-54.79,44-37.93.83-73.15,27.45-40.65,68.62-22.7-.5-39.19-5.7-49.77,13.25-7.16,12.85,1.73,45.37,6.42,57.26-50.83-5.71-58.78,37.77-26.9,67.79-72.67-.51-19.79,42-13.9,78.13-24.41.93-20.05,18.28-13.88,34.26,9.7,25.11,27.33,23,25.4,45.29-1,12-23.66,19.41-10.42,43.1,7.11,12.72,22.44,19.9,33,26.24-21.62,11.26-21.28,39.75-3.22,54.52,14.72,12,40.07,6.88,57.51,8.15-39.44,46.39,36.05,54.28,63.56,50.73-2.63,12.41-1.29,24.06,1.78,36.31,22.76,1,42.42.91,63.7-8.4-28.38,62.19,73.7,7,88.49,2.12l108.59,17c11.55,11.24,63,27.46,61.85-9.91,8,18,18.06,37,42.58,33.65,18.2-2.51,27-10,17.58-29.33C706.34,760,793,749.39,770.59,700.05c46.4-1.84,92.89-8.22,62-64.66,42,8.3,32.11-71,15.95-91.62C897.75,543.7,883.15,489.4,865.6,459.11Z" style="fill:#050606"/></svg>