<svg xmlns="http://www.w3.org/2000/svg" viewBox="0 0 1000 1000"><title>2Mesa de trabajo 1</title><g id="ropa-mujer"><g id="_4" data-name="4"><path d="M234.1,881.5C204.65,909.43,183.39,948,184,1001H814c0-53.3-20.9-91.76-50.33-119.5Z" style="fill:#123144"/><path d="M813.36,984.17a160.64,160.64,0,0,0-9.91-44.49H194.26a155.59,155.59,0,0,0-9.76,44.49Z" style="fill:#256493"/><path d="M794.66,920.86a159,159,0,0,0-31-39.36H234.1a161.64,161.64,0,0,0-31,39.36Z" style="fill:#256493"/><path d="M228.64,881.5,261.2,999.57h111L346.69,819.9S279.75,821.61,228.64,881.5Z" style="fill:#201f25"/><path d="M768.67,881.5,736.11,999.57h-111L650.62,819.9S717.57,821.61,768.67,881.5Z" style="fill:#201f25"/></g></g></svg>