<svg xmlns="http://www.w3.org/2000/svg" width="50" height="50" viewBox="0 0 50 50">
  <path id="address-card" d="M50,8.333V41.667A8.342,8.342,0,0,1,41.667,50h-6.25a2.083,2.083,0,0,1,0-4.167h6.25a4.171,4.171,0,0,0,4.167-4.167V8.333a4.171,4.171,0,0,0-4.167-4.167h-6.25a2.083,2.083,0,0,1,0-4.167h6.25A8.342,8.342,0,0,1,50,8.333ZM35.385,30.1,24.358,41.087a5.586,5.586,0,0,1-3.973,1.621,6.01,6.01,0,0,1-2.3-.46,5.446,5.446,0,0,1-3.5-5.037V33.333H6.25A6.258,6.258,0,0,1,0,27.083V22.917a6.258,6.258,0,0,1,6.25-6.25h8.333V12.794a5.449,5.449,0,0,1,3.5-5.044,5.747,5.747,0,0,1,6.275,1.165L35.383,19.887a7.232,7.232,0,0,1,0,10.215ZM32.44,22.837,21.419,11.865a1.6,1.6,0,0,0-1.746-.26,1.358,1.358,0,0,0-.921,1.2V18.75a2.084,2.084,0,0,1-2.083,2.083H6.25a2.087,2.087,0,0,0-2.083,2.083v4.167A2.087,2.087,0,0,0,6.25,29.167H16.667A2.084,2.084,0,0,1,18.75,31.25V37.2a1.354,1.354,0,0,0,.921,1.194,1.579,1.579,0,0,0,1.742-.256L32.44,27.156a3.063,3.063,0,0,0,0-4.319Z" fill="#fff"/>
</svg>
