<svg xmlns="http://www.w3.org/2000/svg" width="50" height="50" viewBox="0 0 50 50">
  <path id="delete-user" d="M18.75,25A12.5,12.5,0,1,0,6.25,12.5,12.5,12.5,0,0,0,18.75,25Zm0-20.833A8.333,8.333,0,1,1,10.417,12.5,8.333,8.333,0,0,1,18.75,4.167ZM37.5,47.917a2.083,2.083,0,1,1-4.167,0,14.583,14.583,0,1,0-29.167,0,2.083,2.083,0,1,1-4.167,0,18.75,18.75,0,0,1,37.5,0Zm11.89-18.14a2.083,2.083,0,1,1-2.946,2.946l-3.735-3.736-3.735,3.735a2.083,2.083,0,1,1-2.946-2.946l3.736-3.735-3.735-3.735a2.083,2.083,0,1,1,2.946-2.946L42.708,23.1l3.735-3.735a2.083,2.083,0,1,1,2.946,2.946l-3.736,3.735Z" fill="#fff"/>
</svg>
