<svg xmlns="http://www.w3.org/2000/svg" width="50" height="50" viewBox="0 0 50 50">
  <path id="user-unlock" d="M16.667,25a12.5,12.5,0,1,0-12.5-12.5A12.513,12.513,0,0,0,16.667,25Zm0-20.833A8.333,8.333,0,1,1,8.333,12.5,8.342,8.342,0,0,1,16.667,4.167ZM20.812,31.69a2.077,2.077,0,0,1-2.356,1.771A12.511,12.511,0,0,0,4.167,45.833v2.083a2.083,2.083,0,0,1-4.167,0V45.833a16.677,16.677,0,0,1,19.044-16.5,2.086,2.086,0,0,1,1.771,2.356Zm20.854-2.523H33.333V27.083a4.168,4.168,0,0,1,7.275-2.777,2.082,2.082,0,1,0,3.1-2.781,8.333,8.333,0,0,0-14.542,5.558v3.2A8.339,8.339,0,0,0,25,37.5v4.167A8.342,8.342,0,0,0,33.333,50h8.333A8.342,8.342,0,0,0,50,41.667V37.5a8.342,8.342,0,0,0-8.333-8.333Zm4.167,12.5a4.171,4.171,0,0,1-4.167,4.167H33.333a4.171,4.171,0,0,1-4.167-4.167V37.5a4.171,4.171,0,0,1,4.167-4.167h8.333A4.171,4.171,0,0,1,45.833,37.5Zm-5.208-2.083A3.125,3.125,0,1,1,37.5,36.458,3.126,3.126,0,0,1,40.625,39.583Z" fill="#fff"/>
</svg>
