<svg xmlns="http://www.w3.org/2000/svg" width="50" height="51.73" viewBox="0 0 50 51.73">
  <path id="user-gear" d="M32.333,12.933A12.933,12.933,0,1,0,19.4,25.865,12.946,12.946,0,0,0,32.333,12.933ZM19.4,21.554a8.622,8.622,0,1,1,8.622-8.622A8.63,8.63,0,0,1,19.4,21.554ZM19.383,32.2A2.156,2.156,0,0,1,17.51,34.6,15.1,15.1,0,0,0,4.31,49.575a2.155,2.155,0,1,1-4.311,0A19.417,19.417,0,0,1,16.975,30.327,2.162,2.162,0,0,1,19.381,32.2ZM48.921,41.24l-2.1-1.211a9.88,9.88,0,0,0,0-6.777l2.1-1.211a2.155,2.155,0,0,0-2.155-3.733l-2.1,1.211A10.716,10.716,0,0,0,38.8,26.083V23.71a2.155,2.155,0,0,0-4.311,0v2.373a10.742,10.742,0,0,0-5.869,3.436l-2.1-1.211a2.155,2.155,0,1,0-2.155,3.733l2.1,1.211a9.88,9.88,0,0,0,0,6.777l-2.1,1.211a2.155,2.155,0,1,0,2.155,3.733l2.1-1.211A10.716,10.716,0,0,0,34.488,47.2v2.373a2.155,2.155,0,1,0,4.311,0V47.2a10.742,10.742,0,0,0,5.869-3.436l2.1,1.211a2.155,2.155,0,1,0,2.155-3.733ZM36.644,43.107A6.466,6.466,0,1,1,43.11,36.64,6.474,6.474,0,0,1,36.644,43.107Z" transform="translate(0.001)" fill="#fff"/>
</svg>
