<svg xmlns="http://www.w3.org/2000/svg" width="50" height="49.999" viewBox="0 0 50 49.999">
  <path id="user-slash" d="M22.85,31.256a2.08,2.08,0,0,1-1.5,2.535A14.575,14.575,0,0,0,10.415,47.916a2.083,2.083,0,1,1-4.167,0A18.739,18.739,0,0,1,20.31,29.758a2.081,2.081,0,0,1,2.537,1.5ZM49.389,49.389a2.082,2.082,0,0,1-2.946,0L.611,3.556A2.083,2.083,0,0,1,3.556.611L12.79,9.844A12.5,12.5,0,1,1,27.656,24.71L49.389,46.443a2.081,2.081,0,0,1,0,2.946ZM16.8,13.856,23.644,20.7A8.452,8.452,0,0,0,25,20.833,8.333,8.333,0,1,0,16.667,12.5a8.476,8.476,0,0,0,.135,1.356Z" fill="#fff"/>
</svg>
