<?xml version="1.0" encoding="UTF-8" standalone="no"?>
<!DOCTYPE svg PUBLIC "-//W3C//DTD SVG 1.1//EN" "http://www.w3.org/Graphics/SVG/1.1/DTD/svg11.dtd">
<svg width="100%" height="100%" viewBox="0 0 53 53" version="1.1" xmlns="http://www.w3.org/2000/svg" xmlns:xlink="http://www.w3.org/1999/xlink" xml:space="preserve" xmlns:serif="http://www.serif.com/" style="fill-rule:evenodd;clip-rule:evenodd;stroke-linejoin:round;stroke-miterlimit:1.41421;">
    <rect id="arrow" x="0" y="0" width="52.5" height="52.5" style="fill:none;"/>
    <path d="M10.225,24.405l36.236,0c0.334,-0.009 0.668,0.028 0.993,0.109c0.843,0.257 1.386,1.088 1.284,1.962c-0.103,0.892 -0.836,1.589 -1.732,1.648l-36.878,0l0.363,0.399l7.497,7.497c0.515,0.434 0.775,1.1 0.69,1.768c-0.071,0.657 -0.508,1.22 -1.126,1.453c-0.619,0.272 -1.341,0.173 -1.865,-0.254c-0.115,-0.089 -0.225,-0.187 -0.327,-0.291l-10.9,-10.899c-0.602,-0.481 -0.852,-1.285 -0.63,-2.023c0.121,-0.358 0.32,-0.685 0.582,-0.957c3.657,-3.681 7.327,-7.355 11.009,-11.021c0.356,-0.436 0.89,-0.689 1.453,-0.689c1.03,0 1.877,0.848 1.877,1.877c0,0.569 -0.259,1.109 -0.702,1.465l-7.533,7.52c-0.13,0.097 -0.273,0.174 -0.424,0.231l0.133,0.205Z" style="fill:#585857;fill-rule:nonzero;"/>
</svg>
