<svg id="cabello_fondo" data-name="cabello fondo" xmlns="http://www.w3.org/2000/svg" viewBox="0 0 1000 1000"><title>1Mesa de trabajo 1</title><g id="_4" data-name="4"><path d="M777.3,366.14c1.41,11.1,2.62,22.21,3.69,33.24,2.44,25.17,5.63,50.32,7.42,75.57,2,28.63-1.73,57.68-3.4,86.4-3.95,67.75-14.24,135.38-37.75,197.84-4.08,10.84-9.07,28.28-20.59,31.73-14.4,4.31-28.68-10.44-41.82-14.82-14.19-4.73-24.14,8.76-37.38,6-4.31-.91-8.33-4.94-13.32-4.5-3.15.27-6,3.79-8.73,4.22-9.93,1.55-19-4.82-28.87-4.45-6.74.25-11.85,2.79-19,1.51-6.76-1.2-12.11-4-18.73-2.91-6.89,1.11-10,4.13-17.93,2.95-24.72-3.66-49.33-6.67-74.2-9.57-18.7-2.2-36.69-8.52-54.46-15.38-15.85-6.12-30.34-8.82-46.69-12.43s-29.73-15.3-45.15-19.08c-12-2.94-25.9-1.08-38.44-8.19-9.3-5.28-17.32-13.67-23.91-22.83-.36-.46-.33-.48.07,0a1.77,1.77,0,0,1,.1,2c-7.29-1.18-13.24-4.83-19.59-10.55-31.65-28.54-27.48-93.23-27.39-135.22.12-56.8,2.15-113.41,7.12-169.75,4.52-51.25,8.72-99.58,36.89-140.59,12.83-18.68,25.68-37.44,40.49-53.9,19.72-21.91,36.28-43.88,60.45-59.7,24.41-16,51.46-25.66,79-31.08,36.18-7.14,74-7.23,110.61-5.82,35.79,1.38,67.86,9,100.83,25.42,32.72,16.25,59.73,43.3,79.77,77.51C755.71,239.73,769.74,306.9,777.3,366.14Z"/></g></svg>