<svg xmlns="http://www.w3.org/2000/svg" viewBox="0 0 1000 1000"><title>2Mesa de trabajo 1</title><g id="caras_y_silueta" data-name="caras y silueta"><g id="cara_rectangular" data-name="cara rectangular"><path d="M628.18,463.34c-7.13,40.47,16.87,74.18,53.63,81.44s72.28-14.68,79.38-55.16-16.87-79.18-53.61-86.44S635.29,422.85,628.18,463.34Z" style="fill:#f5bf83;fill-rule:evenodd"/><path d="M371.83,463.34c7.12,40.47-16.88,74.18-53.63,81.44s-72.28-14.68-79.39-55.16,16.88-79.18,53.62-86.44S364.71,422.85,371.83,463.34Z" style="fill:#f5bf83;fill-rule:evenodd"/><path id="rectangular" d="M500,155.87c-216.59,0-237.49,140.39-205.62,282.49C341,646.18,250.51,715.87,500,715.87s159-69.69,205.62-277.51C737.49,296.26,716.59,155.87,500,155.87Z" style="fill:#f5bf83"/><path d="M574.81,800.55c-20.52-20.76,0-125.55,0-125.55l-74.81.5-74.81-.5s20.52,104.79,0,125.55c0,0-240.19,30.37-240.19,199.45H815C815,830.92,574.81,800.55,574.81,800.55Z" style="fill:#f5bf83"/></g></g></svg>