<svg xmlns="http://www.w3.org/2000/svg" viewBox="0 0 1000 1000"><title>Mesa de trabajo 1</title><g id="ropa_masculino" data-name="ropa masculino"><path d="M386.53,889.76c-5.68-3-132.6-45.58-132.6-45.58C197.42,857.45,184.75,947.79,179,1001H314Z" style="fill:#0b5629;fill-rule:evenodd"/><path d="M611.47,889.76c5.68-3,132.6-45.58,132.6-45.58C800.58,857.45,813.25,947.79,819,1001H684Z" style="fill:#0b5629;fill-rule:evenodd"/><path d="M429,795c-31.75,10.31-162.84,41.6-175.81,49.6,10.53,16.39,26.48,83.87,40.27,156.4H704.54c13.8-72.52,29.75-140,40.27-156.4-13-8-144.06-39.29-175.81-49.6C589,885.66,405.49,874.54,429,795Z" style="fill:#0fa24e;fill-rule:evenodd"/><path d="M321,824.14c1.42,3.54,10.36,176.86,10.36,176.86h49.36L363,813.09Z" style="fill:#0b5629;fill-rule:evenodd"/><path d="M681,825.15c-1.42,3.54-12.47,175.85-12.47,175.85H619.17l18-187.62Z" style="fill:#0b5629;fill-rule:evenodd"/></g></svg>