<svg xmlns="http://www.w3.org/2000/svg" xmlns:xlink="http://www.w3.org/1999/xlink" width="537.267" height="312.279" viewBox="0 0 537.267 312.279">
  <defs>
    <clipPath id="clip-path">
      <rect id="Rectángulo_20882" data-name="Rectángulo 20882" width="199.915" height="166.625" fill="#fcfcfc"/>
    </clipPath>
  </defs>
  <g id="mantenimiento" transform="translate(-369.867 -460.86)">
    <g id="Grupo_14044" data-name="Grupo 14044" transform="translate(-6.938 -52.716)">
      <g id="Grupo_14042" data-name="Grupo 14042" transform="translate(377.306 514.076)">
        <path id="Trazado_466" data-name="Trazado 466" d="M102.585,294.878V16.685c0-9.1,8.049-16.185,17.158-16.185H519.176c9.109,0,17.158,7.085,17.158,16.185V294.878Z" transform="translate(-51.075 -0.5)" fill="none" stroke="#fff" stroke-width="1"/>
        <path id="Trazado_468" data-name="Trazado 468" d="M.5,585.842H536.767v9.417a3.221,3.221,0,0,1-.206,1.035,1.619,1.619,0,0,1-.512.789,35.824,35.824,0,0,1-20.306,5.659H21.526a35.837,35.837,0,0,1-20.311-5.659,1.644,1.644,0,0,1-.511-.789,3.255,3.255,0,0,1-.2-1.035Z" transform="translate(-0.5 -291.464)" fill="none" stroke="#fff" stroke-width="1"/>
        <path id="Trazado_470" data-name="Trazado 470" d="M127.124,44.286H536.229V299.526H127.124Z" transform="translate(-63.292 -22.3)" fill="rgba(13,13,13,0.1)" stroke="#fff" stroke-width="1" fill-rule="evenodd"/>
        <path id="Trazado_13858" data-name="Trazado 13858" d="M532,23.878a2.312,2.312,0,1,0-2.312-2.312A2.312,2.312,0,0,0,532,23.878Z" transform="translate(-264.563 -9.993)" fill="#adabc3" fill-rule="evenodd"/>
      </g>
      <line id="Línea_178" data-name="Línea 178" x2="408.952" transform="translate(440.962 559.963)" fill="none" stroke="#fff" stroke-width="1"/>
      <g id="Elipse_51" data-name="Elipse 51" transform="translate(804.127 544.136)" fill="#fff" stroke="#707070" stroke-width="1">
        <ellipse cx="3.845" cy="4.194" rx="3.845" ry="4.194" stroke="none"/>
        <ellipse cx="3.845" cy="4.194" rx="3.345" ry="3.694" fill="none"/>
      </g>
      <g id="Elipse_52" data-name="Elipse 52" transform="translate(814.612 544.136)" fill="#fff" stroke="#707070" stroke-width="1">
        <circle cx="4.194" cy="4.194" r="4.194" stroke="none"/>
        <circle cx="4.194" cy="4.194" r="3.694" fill="none"/>
      </g>
      <g id="Elipse_53" data-name="Elipse 53" transform="translate(825.797 544.136)" fill="#fff" stroke="#707070" stroke-width="1">
        <ellipse cx="3.845" cy="4.194" rx="3.845" ry="4.194" stroke="none"/>
        <ellipse cx="3.845" cy="4.194" rx="3.345" ry="3.694" fill="none"/>
      </g>
    </g>
    <g id="Grupo_14049" data-name="Grupo 14049" transform="translate(543.132 544.436)">
      <g id="Grupo_14048" data-name="Grupo 14048" transform="translate(0 0)" clip-path="url(#clip-path)">
        <path id="Trazado_13896" data-name="Trazado 13896" d="M79.661,47.1l10.5,2.973,2.477-6.959L83.584,39.2a23.832,23.832,0,0,0,.447-11.251l8.258-3.369-2.337-7.008-9.116,2.371a23.84,23.84,0,0,0-7.44-7.471L76.749,2.9,69.962,0,65.3,9.162a23.854,23.854,0,0,0-10.315.2L50.058.529,43.387,3.7l3.624,9.174a23.819,23.819,0,0,0-7.068,7.515l-9.527-2.912-2.618,6.9,9.108,4.175a23.808,23.808,0,0,0,0,8.266l-9.222,3.56,2.189,7.046L39.965,45a23.875,23.875,0,0,0,6.995,7.463L44.09,60.8l6.8,2.862,3.873-7.717a23.844,23.844,0,0,0,10.884.152l4.672,8.749,6.729-3.035-3.381-9.066A23.855,23.855,0,0,0,79.661,47.1M54.6,46.523a15.055,15.055,0,1,1,19.76-7.934A15.064,15.064,0,0,1,54.6,46.523" transform="translate(27.558 0)" fill="#fcfcfc"/>
        <path id="Trazado_13897" data-name="Trazado 13897" d="M53.133,12.13a10.089,10.089,0,1,0,5.318,13.247A10.09,10.09,0,0,0,53.133,12.13" transform="translate(38.904 11.267)" fill="#fcfcfc"/>
        <path id="Trazado_13898" data-name="Trazado 13898" d="M90.249,31.129a14.109,14.109,0,1,0,7.438,18.525,14.111,14.111,0,0,0-7.438-18.525" transform="translate(70.278 29.86)" fill="#fcfcfc"/>
        <path id="Trazado_13899" data-name="Trazado 13899" d="M145.5,74.46l-12.668-5.48a33.331,33.331,0,0,0,.627-15.733l11.548-4.712-3.269-9.8-12.75,3.319a33.344,33.344,0,0,0-10.4-10.449l4.688-13.378-9.493-4.057L107.267,26.98a33.332,33.332,0,0,0-14.426.271L85.949,14.906l-9.329,4.426,5.069,12.832A33.3,33.3,0,0,0,71.8,42.673L58.478,38.6l-3.662,9.653,12.738,5.839a33.372,33.372,0,0,0,0,11.56l-12.9,4.979,3.063,9.852L71.834,77.1a33.344,33.344,0,0,0,9.782,10.437L77.6,99.19l9.509,4.005L92.526,92.4a33.337,33.337,0,0,0,15.222.212l6.534,12.235,9.411-4.245-4.73-12.68a33.369,33.369,0,0,0,8.383-7.887l14.691,4.157Zm-53.2,4.767a21.055,21.055,0,1,1,27.635-11.1,21.066,21.066,0,0,1-27.635,11.1" transform="translate(54.411 14.104)" fill="#fcfcfc"/>
        <path id="Trazado_13900" data-name="Trazado 13900" d="M49.421,138.8,48.2,124.178a39.973,39.973,0,0,1-14.436-6.15L20.008,128.494l-9.279-10.632,11.6-11.566a40.121,40.121,0,0,1-4.939-11.237L.742,94.825,0,80.726,16.416,78.76A39.889,39.889,0,0,1,21.664,63.9L10.02,52.4l9.23-10.69L32.672,51.836a39.873,39.873,0,0,1,14.352-6.659l.934-17.058,14.117-.17L63.394,44.71a39.877,39.877,0,0,1,15.093,5.909l12.309-9.754,9.483,10.465L90.019,61.954A40.5,40.5,0,0,1,96.357,77.98l16.366-.116.034,14.213-17.11,2.411a40.054,40.054,0,0,1-4.789,11.359l11.211,11.5-9.429,10.5L79.654,117.672a40.462,40.462,0,0,1-15.408,6.551l-.714,14.334ZM33.707,115.391l.633.455a37.845,37.845,0,0,0,15.045,6.4l.8.146,1.191,14.254,10.142-.176.694-14.035.836-.148a38.285,38.285,0,0,0,16.011-6.795l.647-.481,12.68,9.936L99.16,117.4l-11-11.283.463-.716A37.993,37.993,0,0,0,93.75,93.294l.168-.7,16.713-2.359L110.6,80l-16.076.116-.128-.924a38.383,38.383,0,0,0-6.605-16.743l-.511-.72L97.37,51.279l-6.815-7.515L78.586,53.243l-.645-.439a37.821,37.821,0,0,0-15.705-6.128L61.4,46.55,60.113,30.092l-10.144.126L49.059,46.9l-.794.172A37.811,37.811,0,0,0,33.31,54.009l-.639.485L19.555,44.606l-6.625,7.677L24.362,63.574l-.455.722a37.9,37.9,0,0,0-5.49,15.552l-.1.83L2.225,82.6,2.762,92.73l16.286.228.2.792a38.17,38.17,0,0,0,5.322,12.093l.489.726L13.638,117.96l6.665,7.635Zm22.738-5.047a25.8,25.8,0,0,1-.305-51.6h.319A25.866,25.866,0,0,1,82.236,84.242a25.773,25.773,0,0,1-25.488,26.1Zm.014-49.474-.3,0a23.677,23.677,0,0,0,.281,47.353h.279a23.678,23.678,0,0,0-.265-47.355" transform="translate(0 27.826)" fill="#fcfcfc"/>
        <path id="Trazado_13901" data-name="Trazado 13901" d="M79.661,47.1l10.5,2.973,2.477-6.959L83.584,39.2a23.832,23.832,0,0,0,.447-11.251l8.258-3.369-2.337-7.008-9.116,2.371a23.84,23.84,0,0,0-7.44-7.471L76.749,2.9,69.962,0,65.3,9.162a23.854,23.854,0,0,0-10.315.2L50.058.529,43.387,3.7l3.624,9.174a23.819,23.819,0,0,0-7.068,7.515l-9.527-2.912-2.618,6.9,9.108,4.175a23.808,23.808,0,0,0,0,8.266l-9.222,3.56,2.189,7.046L39.965,45a23.875,23.875,0,0,0,6.995,7.463L44.09,60.8l6.8,2.862,3.873-7.717a23.844,23.844,0,0,0,10.884.152l4.672,8.749,6.729-3.035-3.381-9.066A23.855,23.855,0,0,0,79.661,47.1M54.6,46.523a15.055,15.055,0,1,1,19.76-7.934A15.064,15.064,0,0,1,54.6,46.523" transform="translate(28.698 -2)" fill="none" stroke="#1b1c1d" stroke-width="1"/>
        <path id="Trazado_13902" data-name="Trazado 13902" d="M145.5,74.46l-12.668-5.48a33.331,33.331,0,0,0,.627-15.733l11.548-4.712-3.269-9.8-12.75,3.319a33.344,33.344,0,0,0-10.4-10.449l4.688-13.378-9.493-4.057L107.267,26.98a33.332,33.332,0,0,0-14.426.271L85.949,14.906l-9.329,4.426,5.069,12.832A33.3,33.3,0,0,0,71.8,42.673L58.478,38.6l-3.662,9.653,12.738,5.839a33.372,33.372,0,0,0,0,11.56l-12.9,4.979,3.063,9.852L71.834,77.1a33.344,33.344,0,0,0,9.782,10.437L77.6,99.19l9.509,4.005L92.526,92.4a33.337,33.337,0,0,0,15.222.212l6.534,12.235,9.411-4.245-4.73-12.68a33.369,33.369,0,0,0,8.383-7.887l14.691,4.157Zm-53.2,4.767a21.055,21.055,0,1,1,27.635-11.1,21.066,21.066,0,0,1-27.635,11.1" transform="translate(55.551 12.104)" fill="none" stroke="#1b1c1d" stroke-width="1"/>
      </g>
    </g>
  </g>
</svg>
