<svg xmlns="http://www.w3.org/2000/svg" xmlns:xlink="http://www.w3.org/1999/xlink" width="643" height="725" viewBox="0 0 643 725">
  <defs>
    <clipPath id="clip-path">
      <rect id="Rectángulo_20853" data-name="Rectángulo 20853" width="643" height="725" rx="36" transform="translate(317 178)" fill="#6435c9"/>
    </clipPath>
    <clipPath id="clip-path-2">
      <rect id="Rectángulo_20845" data-name="Rectángulo 20845" width="601.503" height="601.503" fill="none" stroke="#fff" stroke-width="1"/>
    </clipPath>
    <clipPath id="clip-path-4">
      <rect id="Rectángulo_20845-2" data-name="Rectángulo 20845" width="825.573" height="825.573" fill="none" stroke="#fff" stroke-width="1"/>
    </clipPath>
  </defs>
  <g id="Enmascarar_grupo_7" data-name="Enmascarar grupo 7" transform="translate(-317 -178)" clip-path="url(#clip-path)">
    <g id="Grupo_13997" data-name="Grupo 13997" transform="translate(665.504 -124.509)" opacity="0.29">
      <path id="Trazado_13860" data-name="Trazado 13860" d="M102.275,778.989l128.917,66.52L136.935,980.55,8.018,914.03Z" transform="translate(-5.445 -529.036)" fill="none" stroke="#fff" stroke-linecap="round" stroke-linejoin="round" stroke-width="2.5"/>
      <path id="Trazado_13861" data-name="Trazado 13861" d="M8.018,1199.852l60.622,80.5,128.917,66.52-60.622-80.5" transform="translate(-5.445 -814.858)" fill="none" stroke="#fff" stroke-linecap="round" stroke-linejoin="round" stroke-width="2.5"/>
      <path id="Trazado_13862" data-name="Trazado 13862" d="M598.728,1201.84,692.986,1066.8l-60.622-80.5" transform="translate(-406.616 -669.829)" fill="none" stroke="#fff" stroke-linecap="round" stroke-linejoin="round" stroke-width="2.5"/>
      <path id="Trazado_13863" data-name="Trazado 13863" d="M230.585,778.989l60.622,80.5L196.95,994.527" transform="translate(-133.755 -529.036)" fill="none" stroke="#fff" stroke-linejoin="round" stroke-width="1"/>
      <line id="Línea_172" data-name="Línea 172" x2="128.917" y2="66.52" transform="translate(157.452 330.451)" fill="none" stroke="#fff" stroke-linejoin="round" stroke-width="1"/>
      <path id="Trazado_13864" data-name="Trazado 13864" d="M409.375,277.9l6.851,144.906L252.149,408.7,245.3,263.792Z" transform="translate(-166.59 -179.149)" fill="none" stroke="#fff" stroke-linecap="round" stroke-linejoin="round" stroke-width="2.5"/>
      <path id="Trazado_13865" data-name="Trazado 13865" d="M161.9,263.792l-39.4,92.749,6.851,144.905,39.4-92.749" transform="translate(-83.193 -179.149)" fill="none" stroke="#fff" stroke-linecap="round" stroke-linejoin="round" stroke-width="2.5"/>
      <path id="Trazado_13866" data-name="Trazado 13866" d="M143.85,838.008l164.077,14.109,39.4-92.749" transform="translate(-97.693 -515.711)" fill="none" stroke="#fff" stroke-linecap="round" stroke-linejoin="round" stroke-width="2.5"/>
      <path id="Trazado_13867" data-name="Trazado 13867" d="M325.979,307.762l-39.4,92.749L122.5,386.4" transform="translate(-83.194 -209.01)" fill="none" stroke="#fff" stroke-linejoin="round" stroke-width="1"/>
      <line id="Línea_173" data-name="Línea 173" x2="6.851" y2="144.905" transform="translate(203.383 191.501)" fill="none" stroke="#fff" stroke-linejoin="round" stroke-width="1"/>
      <g id="Grupo_13991" data-name="Grupo 13991" transform="translate(0 0.002)">
        <g id="Grupo_13990" data-name="Grupo 13990" clip-path="url(#clip-path-2)">
          <path id="Trazado_13868" data-name="Trazado 13868" d="M986.048,150.4,863.982,228.787l-69.82-149.15L916.228,1.252Z" transform="translate(-539.341 -0.851)" fill="none" stroke="#fff" stroke-linecap="round" stroke-linejoin="round" stroke-width="2.5"/>
          <path id="Trazado_13869" data-name="Trazado 13869" d="M704.522,1.252,604.5,13.5,482.431,91.889,582.455,79.637" transform="translate(-327.635 -0.851)" fill="none" stroke="#fff" stroke-linecap="round" stroke-linejoin="round" stroke-width="2.5"/>
        </g>
      </g>
      <path id="Trazado_13870" data-name="Trazado 13870" d="M482.431,283.727l69.82,149.15,100.024-12.251" transform="translate(-327.635 -192.687)" fill="none" stroke="#fff" stroke-linecap="round" stroke-linejoin="round" stroke-width="2.5"/>
      <path id="Trazado_13871" data-name="Trazado 13871" d="M1032.7,176.332,932.679,188.583l-69.82-149.15" transform="translate(-585.996 -26.779)" fill="none" stroke="#fff" stroke-linejoin="round" stroke-width="1"/>
      <line id="Línea_174" data-name="Línea 174" x1="122.066" y2="78.386" transform="translate(224.617 161.804)" fill="none" stroke="#fff" stroke-linejoin="round" stroke-width="1"/>
      <path id="Trazado_13872" data-name="Trazado 13872" d="M1299.982,669.018,1171.064,602.5l94.257-135.041,128.917,66.52Z" transform="translate(-795.309 -317.465)" fill="none" stroke="#fff" stroke-linecap="round" stroke-linejoin="round" stroke-width="2.5"/>
      <path id="Trazado_13873" data-name="Trazado 13873" d="M1465.429,363.6l-60.622-80.5-128.917-66.52,60.622,80.5" transform="translate(-866.499 -147.088)" fill="none" stroke="#fff" stroke-linecap="round" stroke-linejoin="round" stroke-width="2.5"/>
      <path id="Trazado_13874" data-name="Trazado 13874" d="M1076.389,216.583,982.132,351.624l60.622,80.5" transform="translate(-666.998 -147.087)" fill="none" stroke="#fff" stroke-linecap="round" stroke-linejoin="round" stroke-width="2.5"/>
      <path id="Trazado_13875" data-name="Trazado 13875" d="M1444.532,639.434l-60.622-80.5L1478.167,423.9" transform="translate(-939.859 -287.88)" fill="none" stroke="#fff" stroke-linejoin="round" stroke-width="1"/>
      <line id="Línea_175" data-name="Línea 175" x1="128.917" y1="66.52" transform="translate(315.134 204.537)" fill="none" stroke="#fff" stroke-linejoin="round" stroke-width="1"/>
      <path id="Trazado_13876" data-name="Trazado 13876" d="M1103.464,1260.159l-6.851-144.906,164.078,14.109,6.851,144.905Z" transform="translate(-744.746 -757.404)" fill="none" stroke="#fff" stroke-linecap="round" stroke-linejoin="round" stroke-width="2.5"/>
      <path id="Trazado_13877" data-name="Trazado 13877" d="M1614.821,1107.821l39.4-92.749-6.851-144.905-39.4,92.749" transform="translate(-1092.026 -590.958)" fill="none" stroke="#fff" stroke-linecap="round" stroke-linejoin="round" stroke-width="2.5"/>
      <path id="Trazado_13878" data-name="Trazado 13878" d="M1300.093,840.306,1136.016,826.2l-39.4,92.749" transform="translate(-744.747 -561.097)" fill="none" stroke="#fff" stroke-linecap="round" stroke-linejoin="round" stroke-width="2.5"/>
      <path id="Trazado_13879" data-name="Trazado 13879" d="M1117.965,1370.552l39.4-92.749,164.077,14.109" transform="translate(-759.247 -867.797)" fill="none" stroke="#fff" stroke-linejoin="round" stroke-width="1"/>
      <line id="Línea_176" data-name="Línea 176" x1="6.851" y1="144.905" transform="translate(391.269 265.101)" fill="none" stroke="#fff" stroke-linejoin="round" stroke-width="1"/>
      <g id="Grupo_13993" data-name="Grupo 13993" transform="translate(0 0.002)">
        <g id="Grupo_13992" data-name="Grupo 13992" clip-path="url(#clip-path-2)">
          <path id="Trazado_13880" data-name="Trazado 13880" d="M482.431,1242.63,604.5,1164.244l69.82,149.149-122.066,78.386Z" transform="translate(-327.635 -790.677)" fill="none" stroke="#fff" stroke-linecap="round" stroke-linejoin="round" stroke-width="2.5"/>
          <path id="Trazado_13881" data-name="Trazado 13881" d="M700.03,1681.531l100.024-12.251,122.066-78.386L822.1,1603.146" transform="translate(-475.413 -1080.429)" fill="none" stroke="#fff" stroke-linecap="round" stroke-linejoin="round" stroke-width="2.5"/>
        </g>
      </g>
      <path id="Trazado_13882" data-name="Trazado 13882" d="M1032.7,1275.211l-69.82-149.15-100.024,12.251" transform="translate(-585.995 -764.744)" fill="none" stroke="#fff" stroke-linecap="round" stroke-linejoin="round" stroke-width="2.5"/>
      <path id="Trazado_13883" data-name="Trazado 13883" d="M482.431,1382.606l100.024-12.251,69.82,149.15" transform="translate(-327.635 -930.652)" fill="none" stroke="#fff" stroke-linejoin="round" stroke-width="1"/>
      <line id="Línea_177" data-name="Línea 177" y1="78.386" x2="122.066" transform="translate(254.82 361.317)" fill="none" stroke="#fff" stroke-linejoin="round" stroke-width="1"/>
    </g>
    <g id="Grupo_14047" data-name="Grupo 14047" transform="translate(-332.113 590.498)" opacity="0.5">
      <path id="Trazado_13860-2" data-name="Trazado 13860" d="M137.388,778.989l176.941,91.3L184.96,1055.635,8.018,964.335Z" transform="translate(-4.487 -435.925)" fill="none" stroke="#fff" stroke-linecap="round" stroke-linejoin="round" stroke-width="2.5"/>
      <path id="Trazado_13861-2" data-name="Trazado 13861" d="M8.018,1199.852l83.2,110.484,176.941,91.3-83.2-110.484" transform="translate(-4.487 -671.441)" fill="none" stroke="#fff" stroke-linecap="round" stroke-linejoin="round" stroke-width="2.5"/>
      <path id="Trazado_13862-2" data-name="Trazado 13862" d="M598.728,1282.132,728.1,1096.786,644.893,986.3" transform="translate(-335.051 -551.938)" fill="none" stroke="#fff" stroke-linecap="round" stroke-linejoin="round" stroke-width="2.5"/>
      <path id="Trazado_13863-2" data-name="Trazado 13863" d="M243.115,778.989l83.2,110.484L196.95,1074.819" transform="translate(-110.214 -435.925)" fill="none" stroke="#fff" stroke-linejoin="round" stroke-width="1"/>
      <line id="Línea_172-2" data-name="Línea 172" x2="176.941" y2="91.299" transform="translate(216.105 453.548)" fill="none" stroke="#fff" stroke-linejoin="round" stroke-width="1"/>
      <path id="Trazado_13864-2" data-name="Trazado 13864" d="M470.5,283.156l9.4,198.886L254.7,462.677l-9.4-198.885Z" transform="translate(-137.27 -147.618)" fill="none" stroke="#fff" stroke-linecap="round" stroke-linejoin="round" stroke-width="2.5"/>
      <path id="Trazado_13865-2" data-name="Trazado 13865" d="M176.579,263.792l-54.08,127.3,9.4,198.885,54.08-127.3" transform="translate(-68.551 -147.618)" fill="none" stroke="#fff" stroke-linecap="round" stroke-linejoin="round" stroke-width="2.5"/>
      <path id="Trazado_13866-2" data-name="Trazado 13866" d="M143.85,867.3l225.2,19.364,54.08-127.3" transform="translate(-80.499 -424.945)" fill="none" stroke="#fff" stroke-linecap="round" stroke-linejoin="round" stroke-width="2.5"/>
      <path id="Trazado_13867-2" data-name="Trazado 13867" d="M401.778,307.762l-54.08,127.3L122.5,415.7" transform="translate(-68.551 -172.224)" fill="none" stroke="#fff" stroke-linejoin="round" stroke-width="1"/>
      <line id="Línea_173-2" data-name="Línea 173" x2="9.403" y2="198.885" transform="translate(279.147 262.838)" fill="none" stroke="#fff" stroke-linejoin="round" stroke-width="1"/>
      <g id="Grupo_13991-2" data-name="Grupo 13991" transform="translate(0 0.002)">
        <g id="Grupo_13990-2" data-name="Grupo 13990" clip-path="url(#clip-path-4)">
          <path id="Trazado_13868-2" data-name="Trazado 13868" d="M1057.529,205.962,889.991,313.548l-95.83-204.71L961.7,1.252Z" transform="translate(-444.416 -0.701)" fill="none" stroke="#fff" stroke-linecap="round" stroke-linejoin="round" stroke-width="2.5"/>
          <path id="Trazado_13869-2" data-name="Trazado 13869" d="M787.254,1.252,649.97,18.067,482.431,125.653l137.284-16.816" transform="translate(-269.971 -0.701)" fill="none" stroke="#fff" stroke-linecap="round" stroke-linejoin="round" stroke-width="2.5"/>
        </g>
      </g>
      <path id="Trazado_13870-2" data-name="Trazado 13870" d="M482.431,283.727l95.83,204.71,137.285-16.815" transform="translate(-269.971 -158.774)" fill="none" stroke="#fff" stroke-linecap="round" stroke-linejoin="round" stroke-width="2.5"/>
      <path id="Trazado_13871-2" data-name="Trazado 13871" d="M1095.973,227.329,958.688,244.144l-95.83-204.71" transform="translate(-482.859 -22.066)" fill="none" stroke="#fff" stroke-linejoin="round" stroke-width="1"/>
      <line id="Línea_174-2" data-name="Línea 174" x1="167.538" y2="107.586" transform="translate(308.29 222.078)" fill="none" stroke="#fff" stroke-linejoin="round" stroke-width="1"/>
      <path id="Trazado_13872-2" data-name="Trazado 13872" d="M1348.005,744.1l-176.941-91.3,129.369-185.346,176.942,91.3Z" transform="translate(-655.333 -261.59)" fill="none" stroke="#fff" stroke-linecap="round" stroke-linejoin="round" stroke-width="2.5"/>
      <path id="Trazado_13873-2" data-name="Trazado 13873" d="M1536.036,418.367l-83.2-110.484-176.941-91.3,83.2,110.484" transform="translate(-713.994 -121.2)" fill="none" stroke="#fff" stroke-linecap="round" stroke-linejoin="round" stroke-width="2.5"/>
      <path id="Trazado_13874-2" data-name="Trazado 13874" d="M1111.5,216.583,982.132,401.929l83.2,110.484" transform="translate(-549.606 -121.2)" fill="none" stroke="#fff" stroke-linecap="round" stroke-linejoin="round" stroke-width="2.5"/>
      <path id="Trazado_13875-2" data-name="Trazado 13875" d="M1467.115,719.726l-83.2-110.484L1513.28,423.9" transform="translate(-774.443 -237.213)" fill="none" stroke="#fff" stroke-linejoin="round" stroke-width="1"/>
      <line id="Línea_175-2" data-name="Línea 175" x1="176.941" y1="91.299" transform="translate(432.527 280.73)" fill="none" stroke="#fff" stroke-linejoin="round" stroke-width="1"/>
      <path id="Trazado_13876-2" data-name="Trazado 13876" d="M1106.016,1314.139l-9.4-198.885,225.2,19.365,9.4,198.885Z" transform="translate(-613.669 -624.1)" fill="none" stroke="#fff" stroke-linecap="round" stroke-linejoin="round" stroke-width="2.5"/>
      <path id="Trazado_13877-2" data-name="Trazado 13877" d="M1617.373,1196.352l54.08-127.3-9.4-198.885-54.08,127.3" transform="translate(-899.827 -486.948)" fill="none" stroke="#fff" stroke-linecap="round" stroke-linejoin="round" stroke-width="2.5"/>
      <path id="Trazado_13878-2" data-name="Trazado 13878" d="M1375.893,845.561l-225.2-19.364-54.08,127.3" transform="translate(-613.67 -462.343)" fill="none" stroke="#fff" stroke-linecap="round" stroke-linejoin="round" stroke-width="2.5"/>
      <path id="Trazado_13879-2" data-name="Trazado 13879" d="M1117.965,1405.1l54.08-127.3,225.2,19.364" transform="translate(-625.618 -715.064)" fill="none" stroke="#fff" stroke-linejoin="round" stroke-width="1"/>
      <line id="Línea_176-2" data-name="Línea 176" x1="9.403" y1="198.885" transform="translate(537.023 363.855)" fill="none" stroke="#fff" stroke-linejoin="round" stroke-width="1"/>
      <g id="Grupo_13993-2" data-name="Grupo 13993" transform="translate(0 0.002)">
        <g id="Grupo_13992-2" data-name="Grupo 13992" clip-path="url(#clip-path-4)">
          <path id="Trazado_13880-2" data-name="Trazado 13880" d="M482.431,1271.829l167.538-107.585,95.829,204.71L578.26,1476.54Z" transform="translate(-269.97 -651.517)" fill="none" stroke="#fff" stroke-linecap="round" stroke-linejoin="round" stroke-width="2.5"/>
          <path id="Trazado_13881-2" data-name="Trazado 13881" d="M700.03,1715.3l137.285-16.815,167.538-107.586L867.568,1607.71" transform="translate(-391.74 -890.272)" fill="none" stroke="#fff" stroke-linecap="round" stroke-linejoin="round" stroke-width="2.5"/>
        </g>
      </g>
      <path id="Trazado_13882-2" data-name="Trazado 13882" d="M1095.972,1330.772l-95.83-204.71-137.284,16.815" transform="translate(-482.859 -630.148)" fill="none" stroke="#fff" stroke-linecap="round" stroke-linejoin="round" stroke-width="2.5"/>
      <path id="Trazado_13883-2" data-name="Trazado 13883" d="M482.431,1387.17l137.284-16.815,95.83,204.71" transform="translate(-269.97 -766.856)" fill="none" stroke="#fff" stroke-linejoin="round" stroke-width="1"/>
      <line id="Línea_177-2" data-name="Línea 177" y1="107.586" x2="167.538" transform="translate(349.745 495.914)" fill="none" stroke="#fff" stroke-linejoin="round" stroke-width="1"/>
    </g>
  </g>
</svg>
