<svg xmlns="http://www.w3.org/2000/svg" width="24" height="24" viewBox="0 0 24 24"><path d="M19,4H15V3A3,3,0,0,0,9,3V4H5A5.006,5.006,0,0,0,0,9V19a5.006,5.006,0,0,0,5,5H19a5.006,5.006,0,0,0,5-5V9A5.006,5.006,0,0,0,19,4ZM11,3a1,1,0,0,1,2,0V6H11V3ZM22,19a3,3,0,0,1-3,3H5a3,3,0,0,1-3-3V9A3,3,0,0,1,5,6H9a2,2,0,0,0,2,2h2a2,2,0,0,0,2-2h4a3,3,0,0,1,3,3ZM9.5,12.5A2.5,2.5,0,1,1,12,15,2.5,2.5,0,0,1,9.5,12.5Zm7.468,7.251a1,1,0,1,1-1.937.5,3.168,3.168,0,0,0-6.064,0A1,1,0,0,1,8,21a1.031,1.031,0,0,1-.25-.031,1,1,0,0,1-.719-1.218,5.165,5.165,0,0,1,9.936,0Z" fill="#707070"/></svg>